<svg 
 xmlns="http://www.w3.org/2000/svg"
 xmlns:xlink="http://www.w3.org/1999/xlink"
 width="400px" height="400px">
<defs>
<linearGradient id="PSgrad_0" x1="50%" x2="0%" y1="86.603%" y2="0%">
  <stop offset="0%" stop-color="rgb(90,126,181)" stop-opacity="1" />
  <stop offset="100%" stop-color="rgb(104,191,216)" stop-opacity="1" />
</linearGradient>

</defs>
<path fill-rule="evenodd"  fill="rgb(0, 0, 0)"
 d="M382.359,181.570 C374.972,181.570 368.640,186.139 366.016,192.595 L234.492,192.595 L234.492,177.160 L292.579,177.160 C294.333,177.160 296.015,176.463 297.257,175.222 L310.630,161.850 C313.011,163.050 315.691,163.743 318.534,163.743 C328.261,163.743 336.175,155.829 336.175,146.102 C336.175,136.375 328.261,128.462 318.534,128.462 C308.807,128.462 300.894,136.375 300.894,146.102 C300.894,148.129 301.254,150.069 301.886,151.882 L289.839,163.930 L234.492,163.930 L234.492,145.628 L246.714,133.405 C248.911,134.390 251.338,134.949 253.897,134.949 C263.624,134.949 271.537,127.035 271.537,117.308 C271.537,107.581 263.624,99.668 253.897,99.668 C244.170,99.668 236.256,107.581 236.256,117.308 C236.256,119.629 236.718,121.841 237.536,123.872 L223.199,138.210 C221.958,139.450 221.262,141.133 221.262,142.887 L221.262,163.929 L205.826,163.929 L205.826,33.983 C212.283,31.360 216.852,25.028 216.852,17.640 C216.852,7.913 208.938,0.000 199.211,0.000 C189.484,0.000 181.570,7.913 181.570,17.640 C181.570,25.027 186.139,31.359 192.596,33.983 L192.596,163.930 L177.160,163.930 L177.160,107.420 C177.160,105.666 176.464,103.983 175.223,102.743 L161.849,89.370 C163.050,86.989 163.742,84.309 163.742,81.465 C163.742,71.738 155.829,63.824 146.101,63.824 C136.375,63.824 128.461,71.738 128.461,81.465 C128.461,91.192 136.375,99.105 146.101,99.105 C148.128,99.105 150.067,98.744 151.881,98.113 L163.930,110.160 L163.930,163.930 L110.159,163.930 L98.111,151.882 C98.743,150.069 99.104,148.129 99.104,146.102 C99.104,136.375 91.190,128.462 81.463,128.462 C71.736,128.462 63.823,136.375 63.823,146.102 C63.823,155.829 71.736,163.743 81.463,163.743 C84.307,163.743 86.987,163.050 89.369,161.850 L102.741,175.223 C103.982,176.463 105.664,177.161 107.419,177.161 L163.930,177.161 L163.930,192.596 L33.983,192.596 C31.360,186.140 25.028,181.571 17.641,181.571 C7.913,181.571 0.000,189.485 0.000,199.212 C0.000,208.938 7.913,216.852 17.641,216.852 C25.028,216.852 31.359,212.283 33.983,205.827 L163.931,205.827 L163.931,221.262 L142.888,221.262 C141.134,221.262 139.452,221.959 138.210,223.200 L123.874,237.536 C121.842,236.719 119.630,236.257 117.310,236.257 C107.583,236.257 99.669,244.170 99.669,253.897 C99.669,263.624 107.583,271.538 117.310,271.538 C127.037,271.538 134.950,263.624 134.950,253.897 C134.950,251.338 134.390,248.912 133.407,246.715 L145.629,234.493 L163.931,234.493 L163.931,289.840 L151.882,301.887 C150.069,301.256 148.129,300.895 146.102,300.895 C136.375,300.895 128.462,308.808 128.462,318.535 C128.462,328.262 136.375,336.176 146.102,336.176 C155.829,336.176 163.743,328.262 163.743,318.535 C163.743,315.692 163.051,313.011 161.850,310.630 L175.224,297.257 C176.464,296.017 177.161,294.334 177.161,292.580 L177.161,234.493 L192.597,234.493 L192.597,366.017 C186.140,368.641 181.571,374.972 181.571,382.360 C181.571,392.087 189.485,400.000 199.212,400.000 C208.939,400.000 216.852,392.087 216.852,382.360 C216.852,374.973 212.284,368.641 205.827,366.017 L205.827,234.492 L221.263,234.492 L221.263,257.110 C221.263,258.865 221.959,260.548 223.200,261.788 L237.537,276.125 C236.719,278.156 236.257,280.368 236.257,282.689 C236.257,292.416 244.171,300.329 253.898,300.329 C263.625,300.329 271.538,292.416 271.538,282.689 C271.538,272.962 263.625,265.048 253.898,265.048 C251.339,265.048 248.912,265.609 246.715,266.592 L234.493,254.370 L234.493,234.492 L254.371,234.492 L266.593,246.714 C265.609,248.911 265.050,251.337 265.050,253.896 C265.050,263.623 272.963,271.537 282.690,271.537 C292.417,271.537 300.331,263.623 300.331,253.896 C300.331,244.169 292.417,236.256 282.690,236.256 C280.370,236.256 278.158,236.718 276.126,237.535 L261.790,223.199 C260.549,221.959 258.867,221.261 257.112,221.261 L234.493,221.261 L234.493,205.826 L366.017,205.826 C368.640,212.282 374.972,216.851 382.359,216.851 C392.086,216.851 400.000,208.938 400.000,199.211 C400.000,189.484 392.086,181.570 382.359,181.570 ZM318.535,141.692 C320.967,141.692 322.945,143.670 322.945,146.102 C322.945,148.534 320.967,150.512 318.535,150.512 C316.103,150.512 314.125,148.534 314.125,146.102 C314.125,143.670 316.103,141.692 318.535,141.692 ZM253.897,112.899 C256.328,112.899 258.307,114.878 258.307,117.309 C258.307,119.741 256.328,121.719 253.897,121.719 C251.465,121.719 249.487,119.741 249.487,117.309 C249.487,114.878 251.466,112.899 253.897,112.899 ZM199.211,13.230 C201.643,13.230 203.621,15.209 203.621,17.640 C203.621,20.072 201.643,22.051 199.211,22.051 C196.779,22.051 194.801,20.072 194.801,17.640 C194.801,15.209 196.780,13.230 199.211,13.230 ZM141.692,81.464 C141.692,79.032 143.671,77.054 146.102,77.054 C148.534,77.054 150.513,79.032 150.513,81.464 C150.513,83.896 148.534,85.874 146.102,85.874 C143.671,85.874 141.692,83.896 141.692,81.464 ZM81.463,150.512 C79.031,150.512 77.053,148.534 77.053,146.102 C77.053,143.670 79.031,141.692 81.463,141.692 C83.895,141.692 85.873,143.670 85.873,146.102 C85.873,148.534 83.895,150.512 81.463,150.512 ZM17.641,203.621 C15.209,203.621 13.230,201.642 13.230,199.211 C13.230,196.779 15.209,194.800 17.641,194.800 C20.072,194.800 22.051,196.779 22.051,199.211 C22.051,201.642 20.072,203.621 17.641,203.621 ZM117.310,258.306 C114.878,258.306 112.899,256.328 112.899,253.896 C112.899,251.464 114.878,249.486 117.310,249.486 C119.741,249.486 121.720,251.464 121.720,253.896 C121.720,256.328 119.741,258.306 117.310,258.306 ZM146.102,322.945 C143.671,322.945 141.692,320.966 141.692,318.534 C141.692,316.103 143.671,314.124 146.102,314.124 C148.534,314.124 150.513,316.103 150.513,318.534 C150.513,320.966 148.533,322.945 146.102,322.945 ZM199.211,386.768 C196.779,386.768 194.801,384.790 194.801,382.358 C194.801,379.926 196.779,377.948 199.211,377.948 C201.643,377.948 203.621,379.926 203.621,382.358 C203.621,384.790 201.643,386.768 199.211,386.768 ZM258.307,282.689 C258.307,285.121 256.328,287.099 253.897,287.099 C251.465,287.099 249.487,285.121 249.487,282.689 C249.487,280.257 251.465,278.279 253.897,278.279 C256.328,278.279 258.307,280.257 258.307,282.689 ZM287.100,253.896 C287.100,256.328 285.121,258.306 282.690,258.306 C280.258,258.306 278.279,256.328 278.279,253.896 C278.279,251.464 280.258,249.486 282.690,249.486 C285.121,249.486 287.100,251.464 287.100,253.896 ZM221.262,177.160 L221.262,192.595 L205.826,192.595 L205.826,177.160 L221.262,177.160 ZM177.160,177.160 L192.596,177.160 L192.596,192.595 L177.160,192.595 L177.160,177.160 ZM177.160,221.261 L177.160,205.826 L192.596,205.826 L192.596,221.261 L177.160,221.261 ZM221.262,221.261 L205.826,221.261 L205.826,205.826 L221.262,205.826 L221.262,221.261 ZM382.359,203.621 C379.927,203.621 377.948,201.642 377.948,199.211 C377.948,196.779 379.927,194.800 382.359,194.800 C384.790,194.800 386.769,196.779 386.769,199.211 C386.769,201.642 384.790,203.621 382.359,203.621 Z"/>
<path fill="url(#PSgrad_0)"
 d="M382.359,181.570 C374.972,181.570 368.640,186.139 366.016,192.595 L234.492,192.595 L234.492,177.160 L292.579,177.160 C294.333,177.160 296.015,176.463 297.257,175.222 L310.630,161.850 C313.011,163.050 315.691,163.743 318.534,163.743 C328.261,163.743 336.175,155.829 336.175,146.102 C336.175,136.375 328.261,128.462 318.534,128.462 C308.807,128.462 300.894,136.375 300.894,146.102 C300.894,148.129 301.254,150.069 301.886,151.882 L289.839,163.930 L234.492,163.930 L234.492,145.628 L246.714,133.405 C248.911,134.390 251.338,134.949 253.897,134.949 C263.624,134.949 271.537,127.035 271.537,117.308 C271.537,107.581 263.624,99.668 253.897,99.668 C244.170,99.668 236.256,107.581 236.256,117.308 C236.256,119.629 236.718,121.841 237.536,123.872 L223.199,138.210 C221.958,139.450 221.262,141.133 221.262,142.887 L221.262,163.929 L205.826,163.929 L205.826,33.983 C212.283,31.360 216.852,25.028 216.852,17.640 C216.852,7.913 208.938,0.000 199.211,0.000 C189.484,0.000 181.570,7.913 181.570,17.640 C181.570,25.027 186.139,31.359 192.596,33.983 L192.596,163.930 L177.160,163.930 L177.160,107.420 C177.160,105.666 176.464,103.983 175.223,102.743 L161.849,89.370 C163.050,86.989 163.742,84.309 163.742,81.465 C163.742,71.738 155.829,63.824 146.101,63.824 C136.375,63.824 128.461,71.738 128.461,81.465 C128.461,91.192 136.375,99.105 146.101,99.105 C148.128,99.105 150.067,98.744 151.881,98.113 L163.930,110.160 L163.930,163.930 L110.159,163.930 L98.111,151.882 C98.743,150.069 99.104,148.129 99.104,146.102 C99.104,136.375 91.190,128.462 81.463,128.462 C71.736,128.462 63.823,136.375 63.823,146.102 C63.823,155.829 71.736,163.743 81.463,163.743 C84.307,163.743 86.987,163.050 89.369,161.850 L102.741,175.223 C103.982,176.463 105.664,177.161 107.419,177.161 L163.930,177.161 L163.930,192.596 L33.983,192.596 C31.360,186.140 25.028,181.571 17.641,181.571 C7.913,181.571 0.000,189.485 0.000,199.212 C0.000,208.938 7.913,216.852 17.641,216.852 C25.028,216.852 31.359,212.283 33.983,205.827 L163.931,205.827 L163.931,221.262 L142.888,221.262 C141.134,221.262 139.452,221.959 138.210,223.200 L123.874,237.536 C121.842,236.719 119.630,236.257 117.310,236.257 C107.583,236.257 99.669,244.170 99.669,253.897 C99.669,263.624 107.583,271.538 117.310,271.538 C127.037,271.538 134.950,263.624 134.950,253.897 C134.950,251.338 134.390,248.912 133.407,246.715 L145.629,234.493 L163.931,234.493 L163.931,289.840 L151.882,301.887 C150.069,301.256 148.129,300.895 146.102,300.895 C136.375,300.895 128.462,308.808 128.462,318.535 C128.462,328.262 136.375,336.176 146.102,336.176 C155.829,336.176 163.743,328.262 163.743,318.535 C163.743,315.692 163.051,313.011 161.850,310.630 L175.224,297.257 C176.464,296.017 177.161,294.334 177.161,292.580 L177.161,234.493 L192.597,234.493 L192.597,366.017 C186.140,368.641 181.571,374.972 181.571,382.360 C181.571,392.087 189.485,400.000 199.212,400.000 C208.939,400.000 216.852,392.087 216.852,382.360 C216.852,374.973 212.284,368.641 205.827,366.017 L205.827,234.492 L221.263,234.492 L221.263,257.110 C221.263,258.865 221.959,260.548 223.200,261.788 L237.537,276.125 C236.719,278.156 236.257,280.368 236.257,282.689 C236.257,292.416 244.171,300.329 253.898,300.329 C263.625,300.329 271.538,292.416 271.538,282.689 C271.538,272.962 263.625,265.048 253.898,265.048 C251.339,265.048 248.912,265.609 246.715,266.592 L234.493,254.370 L234.493,234.492 L254.371,234.492 L266.593,246.714 C265.609,248.911 265.050,251.337 265.050,253.896 C265.050,263.623 272.963,271.537 282.690,271.537 C292.417,271.537 300.331,263.623 300.331,253.896 C300.331,244.169 292.417,236.256 282.690,236.256 C280.370,236.256 278.158,236.718 276.126,237.535 L261.790,223.199 C260.549,221.959 258.867,221.261 257.112,221.261 L234.493,221.261 L234.493,205.826 L366.017,205.826 C368.640,212.282 374.972,216.851 382.359,216.851 C392.086,216.851 400.000,208.938 400.000,199.211 C400.000,189.484 392.086,181.570 382.359,181.570 ZM318.535,141.692 C320.967,141.692 322.945,143.670 322.945,146.102 C322.945,148.534 320.967,150.512 318.535,150.512 C316.103,150.512 314.125,148.534 314.125,146.102 C314.125,143.670 316.103,141.692 318.535,141.692 ZM253.897,112.899 C256.328,112.899 258.307,114.878 258.307,117.309 C258.307,119.741 256.328,121.719 253.897,121.719 C251.465,121.719 249.487,119.741 249.487,117.309 C249.487,114.878 251.466,112.899 253.897,112.899 ZM199.211,13.230 C201.643,13.230 203.621,15.209 203.621,17.640 C203.621,20.072 201.643,22.051 199.211,22.051 C196.779,22.051 194.801,20.072 194.801,17.640 C194.801,15.209 196.780,13.230 199.211,13.230 ZM141.692,81.464 C141.692,79.032 143.671,77.054 146.102,77.054 C148.534,77.054 150.513,79.032 150.513,81.464 C150.513,83.896 148.534,85.874 146.102,85.874 C143.671,85.874 141.692,83.896 141.692,81.464 ZM81.463,150.512 C79.031,150.512 77.053,148.534 77.053,146.102 C77.053,143.670 79.031,141.692 81.463,141.692 C83.895,141.692 85.873,143.670 85.873,146.102 C85.873,148.534 83.895,150.512 81.463,150.512 ZM17.641,203.621 C15.209,203.621 13.230,201.642 13.230,199.211 C13.230,196.779 15.209,194.800 17.641,194.800 C20.072,194.800 22.051,196.779 22.051,199.211 C22.051,201.642 20.072,203.621 17.641,203.621 ZM117.310,258.306 C114.878,258.306 112.899,256.328 112.899,253.896 C112.899,251.464 114.878,249.486 117.310,249.486 C119.741,249.486 121.720,251.464 121.720,253.896 C121.720,256.328 119.741,258.306 117.310,258.306 ZM146.102,322.945 C143.671,322.945 141.692,320.966 141.692,318.534 C141.692,316.103 143.671,314.124 146.102,314.124 C148.534,314.124 150.513,316.103 150.513,318.534 C150.513,320.966 148.533,322.945 146.102,322.945 ZM199.211,386.768 C196.779,386.768 194.801,384.790 194.801,382.358 C194.801,379.926 196.779,377.948 199.211,377.948 C201.643,377.948 203.621,379.926 203.621,382.358 C203.621,384.790 201.643,386.768 199.211,386.768 ZM258.307,282.689 C258.307,285.121 256.328,287.099 253.897,287.099 C251.465,287.099 249.487,285.121 249.487,282.689 C249.487,280.257 251.465,278.279 253.897,278.279 C256.328,278.279 258.307,280.257 258.307,282.689 ZM287.100,253.896 C287.100,256.328 285.121,258.306 282.690,258.306 C280.258,258.306 278.279,256.328 278.279,253.896 C278.279,251.464 280.258,249.486 282.690,249.486 C285.121,249.486 287.100,251.464 287.100,253.896 ZM221.262,177.160 L221.262,192.595 L205.826,192.595 L205.826,177.160 L221.262,177.160 ZM177.160,177.160 L192.596,177.160 L192.596,192.595 L177.160,192.595 L177.160,177.160 ZM177.160,221.261 L177.160,205.826 L192.596,205.826 L192.596,221.261 L177.160,221.261 ZM221.262,221.261 L205.826,221.261 L205.826,205.826 L221.262,205.826 L221.262,221.261 ZM382.359,203.621 C379.927,203.621 377.948,201.642 377.948,199.211 C377.948,196.779 379.927,194.800 382.359,194.800 C384.790,194.800 386.769,196.779 386.769,199.211 C386.769,201.642 384.790,203.621 382.359,203.621 Z"/>
</svg>