<svg 
 xmlns="http://www.w3.org/2000/svg"
 xmlns:xlink="http://www.w3.org/1999/xlink"
 width="400px" height="400px">
<defs>
<linearGradient id="PSgrad_0" x1="50%" x2="0%" y1="86.603%" y2="0%">
  <stop offset="0%" stop-color="rgb(90,126,181)" stop-opacity="1" />
  <stop offset="100%" stop-color="rgb(104,191,216)" stop-opacity="1" />
</linearGradient>

</defs>
<path fill-rule="evenodd"  fill="rgb(0, 0, 0)"
 d="M141.935,200.000 L129.032,200.000 L129.032,187.097 L141.935,187.097 L141.935,200.000 ZM103.226,212.903 L103.226,200.000 L116.129,200.000 L116.129,212.903 L103.226,212.903 ZM387.097,400.000 L245.161,400.000 L129.032,400.000 L12.903,400.000 L0.000,400.000 L0.000,387.097 L12.903,387.097 L12.903,270.968 L25.806,270.968 L25.806,258.065 L12.903,258.065 L12.903,245.161 L25.806,245.161 L25.806,219.355 L83.871,219.355 C99.452,219.355 112.477,230.458 115.477,245.161 L129.032,245.161 L129.032,258.065 L116.129,258.065 L116.129,270.968 L129.032,270.968 L129.032,387.097 L245.161,387.097 L245.161,270.968 L258.065,270.968 L258.065,232.258 L277.419,232.258 L277.419,158.626 C273.355,151.845 270.968,143.948 270.968,135.484 C270.968,133.948 271.045,132.432 271.200,130.929 L234.929,90.129 C232.897,89.961 230.910,89.665 228.968,89.232 L172.219,141.619 C165.671,147.664 157.400,150.671 149.148,150.671 C142.206,150.677 135.323,148.452 129.426,144.213 L94.884,178.755 L85.761,169.632 L120.503,134.890 C116.961,129.355 115.058,122.929 115.142,116.194 C115.265,106.948 119.026,98.348 125.729,91.981 L200.858,20.613 C208.923,8.226 222.865,0.000 238.710,0.000 C259.110,0.000 276.374,13.606 281.955,32.213 L340.271,97.381 C352.877,105.400 361.290,119.464 361.290,135.484 C361.290,143.948 358.910,151.845 354.839,158.626 L354.839,232.258 L374.194,232.258 L374.194,270.968 L387.097,270.968 L387.097,387.097 L400.000,387.097 L400.000,400.000 L387.097,400.000 ZM83.871,232.258 L38.710,232.258 L38.710,245.161 L102.039,245.161 C99.368,237.671 92.271,232.258 83.871,232.258 ZM103.226,258.065 L38.710,258.065 L38.710,270.968 L103.226,270.968 L103.226,258.065 ZM116.129,283.871 L25.806,283.871 L25.806,322.581 L103.226,322.581 L116.129,322.581 L116.129,283.871 ZM116.129,335.484 L103.226,335.484 L25.806,335.484 L25.806,387.097 L116.129,387.097 L116.129,335.484 ZM193.561,45.335 L134.619,101.335 C130.458,105.284 128.129,110.626 128.052,116.361 C127.974,122.097 130.174,127.497 134.232,131.555 C142.277,139.600 155.110,139.852 163.471,132.135 L215.690,83.935 C202.510,76.084 193.626,61.748 193.561,45.335 ZM238.710,12.903 C220.923,12.903 206.452,27.374 206.452,45.161 C206.452,62.929 220.897,77.387 238.665,77.419 L238.735,77.419 C256.510,77.400 270.968,62.935 270.968,45.161 C270.968,27.374 256.497,12.903 238.710,12.903 ZM283.155,52.903 C280.161,70.110 267.426,83.981 250.839,88.619 L275.355,116.200 C282.606,100.929 298.135,90.323 316.129,90.323 C316.310,90.323 316.484,90.348 316.658,90.348 L283.155,52.903 ZM316.129,103.226 C298.342,103.226 283.871,117.697 283.871,135.484 C283.871,153.271 298.342,167.742 316.129,167.742 C333.916,167.742 348.387,153.271 348.387,135.484 C348.387,117.697 333.916,103.226 316.129,103.226 ZM290.323,172.490 L290.323,232.258 L341.935,232.258 L341.935,172.490 C334.613,177.613 325.723,180.645 316.129,180.645 C306.535,180.645 297.645,177.613 290.323,172.490 ZM361.290,245.161 L354.839,245.161 L277.419,245.161 L270.968,245.161 L270.968,270.968 L361.290,270.968 L361.290,245.161 ZM374.194,283.871 L258.065,283.871 L258.065,387.097 L374.194,387.097 L374.194,283.871 ZM58.065,187.097 L70.968,187.097 L70.968,200.000 L58.065,200.000 L58.065,187.097 ZM45.161,167.742 L58.065,167.742 L58.065,180.645 L45.161,180.645 L45.161,167.742 Z"/>
<path fill="url(#PSgrad_0)"
 d="M141.935,200.000 L129.032,200.000 L129.032,187.097 L141.935,187.097 L141.935,200.000 ZM103.226,212.903 L103.226,200.000 L116.129,200.000 L116.129,212.903 L103.226,212.903 ZM387.097,400.000 L245.161,400.000 L129.032,400.000 L12.903,400.000 L0.000,400.000 L0.000,387.097 L12.903,387.097 L12.903,270.968 L25.806,270.968 L25.806,258.065 L12.903,258.065 L12.903,245.161 L25.806,245.161 L25.806,219.355 L83.871,219.355 C99.452,219.355 112.477,230.458 115.477,245.161 L129.032,245.161 L129.032,258.065 L116.129,258.065 L116.129,270.968 L129.032,270.968 L129.032,387.097 L245.161,387.097 L245.161,270.968 L258.065,270.968 L258.065,232.258 L277.419,232.258 L277.419,158.626 C273.355,151.845 270.968,143.948 270.968,135.484 C270.968,133.948 271.045,132.432 271.200,130.929 L234.929,90.129 C232.897,89.961 230.910,89.665 228.968,89.232 L172.219,141.619 C165.671,147.664 157.400,150.671 149.148,150.671 C142.206,150.677 135.323,148.452 129.426,144.213 L94.884,178.755 L85.761,169.632 L120.503,134.890 C116.961,129.355 115.058,122.929 115.142,116.194 C115.265,106.948 119.026,98.348 125.729,91.981 L200.858,20.613 C208.923,8.226 222.865,0.000 238.710,0.000 C259.110,0.000 276.374,13.606 281.955,32.213 L340.271,97.381 C352.877,105.400 361.290,119.464 361.290,135.484 C361.290,143.948 358.910,151.845 354.839,158.626 L354.839,232.258 L374.194,232.258 L374.194,270.968 L387.097,270.968 L387.097,387.097 L400.000,387.097 L400.000,400.000 L387.097,400.000 ZM83.871,232.258 L38.710,232.258 L38.710,245.161 L102.039,245.161 C99.368,237.671 92.271,232.258 83.871,232.258 ZM103.226,258.065 L38.710,258.065 L38.710,270.968 L103.226,270.968 L103.226,258.065 ZM116.129,283.871 L25.806,283.871 L25.806,322.581 L103.226,322.581 L116.129,322.581 L116.129,283.871 ZM116.129,335.484 L103.226,335.484 L25.806,335.484 L25.806,387.097 L116.129,387.097 L116.129,335.484 ZM193.561,45.335 L134.619,101.335 C130.458,105.284 128.129,110.626 128.052,116.361 C127.974,122.097 130.174,127.497 134.232,131.555 C142.277,139.600 155.110,139.852 163.471,132.135 L215.690,83.935 C202.510,76.084 193.626,61.748 193.561,45.335 ZM238.710,12.903 C220.923,12.903 206.452,27.374 206.452,45.161 C206.452,62.929 220.897,77.387 238.665,77.419 L238.735,77.419 C256.510,77.400 270.968,62.935 270.968,45.161 C270.968,27.374 256.497,12.903 238.710,12.903 ZM283.155,52.903 C280.161,70.110 267.426,83.981 250.839,88.619 L275.355,116.200 C282.606,100.929 298.135,90.323 316.129,90.323 C316.310,90.323 316.484,90.348 316.658,90.348 L283.155,52.903 ZM316.129,103.226 C298.342,103.226 283.871,117.697 283.871,135.484 C283.871,153.271 298.342,167.742 316.129,167.742 C333.916,167.742 348.387,153.271 348.387,135.484 C348.387,117.697 333.916,103.226 316.129,103.226 ZM290.323,172.490 L290.323,232.258 L341.935,232.258 L341.935,172.490 C334.613,177.613 325.723,180.645 316.129,180.645 C306.535,180.645 297.645,177.613 290.323,172.490 ZM361.290,245.161 L354.839,245.161 L277.419,245.161 L270.968,245.161 L270.968,270.968 L361.290,270.968 L361.290,245.161 ZM374.194,283.871 L258.065,283.871 L258.065,387.097 L374.194,387.097 L374.194,283.871 ZM58.065,187.097 L70.968,187.097 L70.968,200.000 L58.065,200.000 L58.065,187.097 ZM45.161,167.742 L58.065,167.742 L58.065,180.645 L45.161,180.645 L45.161,167.742 Z"/>
</svg>