<svg 
 xmlns="http://www.w3.org/2000/svg"
 xmlns:xlink="http://www.w3.org/1999/xlink"
 width="400px" height="375px">
<defs>
<linearGradient id="PSgrad_0" x1="50%" x2="0%" y1="86.603%" y2="0%">
  <stop offset="0%" stop-color="rgb(90,126,181)" stop-opacity="1" />
  <stop offset="100%" stop-color="rgb(104,191,216)" stop-opacity="1" />
</linearGradient>

</defs>
<path fill-rule="evenodd"  fill="rgb(0, 0, 0)"
 d="M393.655,330.285 L292.142,330.285 C288.640,330.285 285.798,327.439 285.798,323.933 L285.798,222.307 C285.798,218.801 288.640,215.955 292.142,215.955 L393.655,215.955 C397.158,215.955 400.000,218.801 400.000,222.307 L400.000,323.933 C400.000,327.439 397.158,330.285 393.655,330.285 ZM387.311,228.659 L298.487,228.659 L298.487,317.581 L387.311,317.581 L387.311,228.659 ZM263.966,72.675 L269.556,61.268 C324.074,88.053 359.426,142.359 361.806,203.004 L349.129,203.500 C346.928,147.529 314.291,97.396 263.966,72.675 ZM210.589,258.708 L220.499,268.629 L211.528,277.611 L192.494,258.556 C190.559,256.625 190.083,253.671 191.302,251.226 L203.991,225.819 L215.341,231.504 L207.956,246.284 C227.136,241.368 241.386,223.965 241.386,203.252 C241.386,187.424 232.871,172.669 219.173,164.736 L225.531,153.741 C243.137,163.935 254.075,182.908 254.075,203.252 C254.075,230.069 235.511,252.572 210.589,258.708 ZM196.974,114.329 C165.486,114.329 139.873,88.681 139.873,57.165 C139.873,25.648 165.486,0.000 196.974,0.000 C228.462,0.000 254.075,25.648 254.075,57.165 C254.075,88.681 228.462,114.329 196.974,114.329 ZM196.974,12.703 C172.490,12.703 152.562,32.647 152.562,57.165 C152.562,81.682 172.490,101.626 196.974,101.626 C221.457,101.626 241.386,81.682 241.386,57.165 C241.386,32.647 221.457,12.703 196.974,12.703 ZM44.704,209.604 C44.704,213.694 44.869,217.797 45.186,221.805 L32.535,222.815 C32.186,218.471 32.015,214.031 32.015,209.604 C32.015,146.100 67.411,89.266 124.392,61.268 L129.975,72.675 C77.378,98.514 44.704,150.985 44.704,209.604 ZM69.264,219.195 L126.365,320.821 C127.475,322.783 127.456,325.190 126.314,327.140 C125.178,329.091 123.098,330.285 120.839,330.285 L6.636,330.285 C4.384,330.285 2.303,329.091 1.161,327.140 C0.019,325.190 -0.000,322.790 1.110,320.821 L58.211,219.195 C60.451,215.193 67.018,215.193 69.264,219.195 ZM109.990,317.581 L63.738,235.264 L17.486,317.581 L109.990,317.581 ZM182.419,128.894 L201.453,147.948 C203.388,149.879 203.864,152.833 202.646,155.278 L189.956,180.685 L178.606,175.000 L185.991,160.220 C166.812,165.136 152.562,182.539 152.562,203.252 C152.562,219.086 161.076,233.848 174.781,241.781 L168.436,252.776 C150.817,242.582 139.873,223.609 139.873,203.252 C139.873,176.436 158.443,153.932 183.358,147.796 L173.448,137.875 L182.419,128.894 ZM196.974,362.043 C227.548,362.043 257.032,353.010 282.245,335.919 L289.357,346.437 C262.037,364.958 230.092,374.746 196.974,374.746 C165.067,374.746 134.105,365.612 107.433,348.323 L114.336,337.659 C138.946,353.608 167.516,362.043 196.974,362.043 Z"/>
<path fill="url(#PSgrad_0)"
 d="M393.655,330.285 L292.142,330.285 C288.640,330.285 285.798,327.439 285.798,323.933 L285.798,222.307 C285.798,218.801 288.640,215.955 292.142,215.955 L393.655,215.955 C397.158,215.955 400.000,218.801 400.000,222.307 L400.000,323.933 C400.000,327.439 397.158,330.285 393.655,330.285 ZM387.311,228.659 L298.487,228.659 L298.487,317.581 L387.311,317.581 L387.311,228.659 ZM263.966,72.675 L269.556,61.268 C324.074,88.053 359.426,142.359 361.806,203.004 L349.129,203.500 C346.928,147.529 314.291,97.396 263.966,72.675 ZM210.589,258.708 L220.499,268.629 L211.528,277.611 L192.494,258.556 C190.559,256.625 190.083,253.671 191.302,251.226 L203.991,225.819 L215.341,231.504 L207.956,246.284 C227.136,241.368 241.386,223.965 241.386,203.252 C241.386,187.424 232.871,172.669 219.173,164.736 L225.531,153.741 C243.137,163.935 254.075,182.908 254.075,203.252 C254.075,230.069 235.511,252.572 210.589,258.708 ZM196.974,114.329 C165.486,114.329 139.873,88.681 139.873,57.165 C139.873,25.648 165.486,0.000 196.974,0.000 C228.462,0.000 254.075,25.648 254.075,57.165 C254.075,88.681 228.462,114.329 196.974,114.329 ZM196.974,12.703 C172.490,12.703 152.562,32.647 152.562,57.165 C152.562,81.682 172.490,101.626 196.974,101.626 C221.457,101.626 241.386,81.682 241.386,57.165 C241.386,32.647 221.457,12.703 196.974,12.703 ZM44.704,209.604 C44.704,213.694 44.869,217.797 45.186,221.805 L32.535,222.815 C32.186,218.471 32.015,214.031 32.015,209.604 C32.015,146.100 67.411,89.266 124.392,61.268 L129.975,72.675 C77.378,98.514 44.704,150.985 44.704,209.604 ZM69.264,219.195 L126.365,320.821 C127.475,322.783 127.456,325.190 126.314,327.140 C125.178,329.091 123.098,330.285 120.839,330.285 L6.636,330.285 C4.384,330.285 2.303,329.091 1.161,327.140 C0.019,325.190 -0.000,322.790 1.110,320.821 L58.211,219.195 C60.451,215.193 67.018,215.193 69.264,219.195 ZM109.990,317.581 L63.738,235.264 L17.486,317.581 L109.990,317.581 ZM182.419,128.894 L201.453,147.948 C203.388,149.879 203.864,152.833 202.646,155.278 L189.956,180.685 L178.606,175.000 L185.991,160.220 C166.812,165.136 152.562,182.539 152.562,203.252 C152.562,219.086 161.076,233.848 174.781,241.781 L168.436,252.776 C150.817,242.582 139.873,223.609 139.873,203.252 C139.873,176.436 158.443,153.932 183.358,147.796 L173.448,137.875 L182.419,128.894 ZM196.974,362.043 C227.548,362.043 257.032,353.010 282.245,335.919 L289.357,346.437 C262.037,364.958 230.092,374.746 196.974,374.746 C165.067,374.746 134.105,365.612 107.433,348.323 L114.336,337.659 C138.946,353.608 167.516,362.043 196.974,362.043 Z"/>
</svg>