<svg 
 xmlns="http://www.w3.org/2000/svg"
 xmlns:xlink="http://www.w3.org/1999/xlink"
 width="400px" height="401px">
<defs>
<linearGradient id="PSgrad_0" x1="50%" x2="0%" y1="86.603%" y2="0%">
  <stop offset="0%" stop-color="rgb(90,126,181)" stop-opacity="1" />
  <stop offset="100%" stop-color="rgb(104,191,216)" stop-opacity="1" />
</linearGradient>

</defs>
<path fill-rule="evenodd"  fill="rgb(0, 0, 0)"
 d="M395.160,373.749 L301.827,400.441 C301.234,400.607 300.620,400.694 300.000,400.694 C299.420,400.694 298.846,400.614 298.280,400.467 L200.000,374.235 L101.720,400.467 C100.560,400.781 99.334,400.775 98.167,400.441 L4.834,373.749 C1.973,372.928 0.000,370.306 0.000,367.330 L0.000,6.988 C0.000,4.892 0.980,2.924 2.653,1.663 C4.327,0.401 6.493,0.001 8.500,0.575 L100.059,26.760 L198.279,0.543 C199.405,0.243 200.585,0.243 201.719,0.543 L260.312,16.183 C262.956,12.877 266.139,9.915 269.840,7.442 C276.812,2.783 284.933,0.315 293.333,0.315 C307.774,0.315 320.545,7.597 328.190,18.680 L391.499,0.575 C393.506,0.001 395.673,0.401 397.346,1.663 C399.020,2.924 400.000,4.892 400.000,6.987 L400.000,367.330 C400.000,370.306 398.027,372.928 395.160,373.749 ZM293.332,13.661 C287.579,13.661 282.019,15.349 277.239,18.539 C263.939,27.428 260.339,45.485 269.212,58.797 L293.333,95.045 L317.453,58.804 C320.646,54.005 322.333,48.434 322.332,42.682 C322.332,26.686 309.325,13.661 293.332,13.661 ZM386.666,15.836 L333.990,30.901 C335.077,34.646 335.672,38.598 335.673,42.689 C335.673,51.090 333.212,59.225 328.552,66.211 L298.886,110.780 C297.646,112.642 295.559,113.756 293.333,113.756 C291.106,113.756 289.026,112.642 287.786,110.780 L258.120,66.204 C250.362,54.566 249.143,40.446 253.579,28.202 L199.999,13.895 L101.720,40.127 C100.559,40.433 99.333,40.433 98.166,40.093 L13.333,15.836 L13.333,362.297 L100.059,387.101 L198.280,360.883 C199.406,360.583 200.586,360.583 201.720,360.883 L299.940,387.101 L386.666,362.298 L386.666,15.836 ZM200.000,273.907 L266.666,273.907 C285.047,273.907 300.000,288.875 300.000,307.272 C300.000,325.670 285.046,340.637 266.666,340.637 L80.000,340.637 L80.000,327.292 L266.666,327.292 C277.693,327.292 286.666,318.310 286.666,307.273 C286.666,296.236 277.693,287.254 266.666,287.254 L200.000,287.254 C181.620,287.254 166.666,272.286 166.666,253.888 C166.666,235.491 181.620,220.523 200.000,220.523 L340.000,220.523 C351.027,220.523 360.000,211.541 360.000,200.504 C360.000,189.467 351.027,180.485 340.000,180.485 L320.000,180.485 C301.620,180.485 286.666,165.517 286.666,147.120 L286.666,127.101 L300.000,127.101 L300.000,147.120 C300.000,158.157 308.973,167.139 320.000,167.139 L340.000,167.139 C358.380,167.139 373.333,182.107 373.334,200.504 C373.334,218.901 358.380,233.869 340.000,233.869 L200.000,233.869 C188.973,233.869 180.000,242.851 180.000,253.888 C180.000,264.925 188.973,273.907 200.000,273.907 ZM333.673,278.471 C334.586,275.742 337.126,273.907 339.999,273.907 C342.873,273.907 345.420,275.742 346.320,278.471 L359.653,318.509 C360.340,320.545 359.993,322.787 358.739,324.522 C357.485,326.263 355.472,327.291 353.332,327.291 L346.666,327.291 L346.666,340.637 L333.333,340.637 L333.333,327.291 L326.666,327.291 C324.526,327.291 322.513,326.263 321.252,324.522 C319.999,322.780 319.659,320.538 320.339,318.509 L333.673,278.471 ZM344.086,313.945 L339.999,301.681 L335.920,313.945 L344.086,313.945 ZM353.333,147.120 L326.666,147.120 C322.980,147.120 320.000,144.131 320.000,140.447 L320.000,120.428 C320.000,118.660 320.700,116.959 321.953,115.711 L335.287,102.364 C337.893,99.756 342.106,99.756 344.713,102.364 L358.046,115.711 C359.300,116.959 360.000,118.660 359.999,120.428 L359.999,140.447 C359.999,144.131 357.020,147.120 353.333,147.120 ZM346.666,123.191 L339.999,116.518 L333.333,123.191 L333.333,133.775 L346.666,133.775 L346.666,123.191 ZM239.998,107.082 L233.334,107.082 L233.334,120.428 L220.000,120.428 L220.000,107.082 L213.332,107.082 C211.192,107.082 209.179,106.055 207.919,104.306 C206.666,102.564 206.326,100.329 207.005,98.293 L220.339,58.255 C221.252,55.533 223.792,53.698 226.666,53.698 C229.539,53.698 232.086,55.533 232.986,58.262 L246.320,98.300 C247.006,100.336 246.659,102.572 245.405,104.313 C244.152,106.055 242.138,107.082 239.998,107.082 ZM226.666,81.472 L222.587,93.737 L230.753,93.737 L226.666,81.472 ZM219.998,173.813 L219.998,193.832 C219.998,197.515 217.019,200.504 213.332,200.504 L186.666,200.504 C182.986,200.504 179.999,197.515 179.999,193.832 L179.999,173.813 C179.999,172.045 180.699,170.343 181.952,169.095 L195.286,155.749 C197.892,153.139 202.105,153.139 204.712,155.749 L218.046,169.095 C219.300,170.342 220.000,172.044 219.998,173.813 ZM206.666,176.575 L199.999,169.902 L193.333,176.575 L193.333,187.158 L206.666,187.158 L206.666,176.575 ZM186.666,107.082 L180.000,107.082 L180.000,120.428 L166.666,120.428 L166.666,107.082 L160.000,107.082 C157.859,107.082 155.846,106.055 154.593,104.306 C153.339,102.564 152.999,100.329 153.673,98.293 L167.006,58.255 C167.920,55.533 170.459,53.698 173.333,53.698 C176.206,53.698 178.752,55.533 179.659,58.262 L192.993,98.300 C193.673,100.336 193.327,102.572 192.073,104.313 C190.820,106.055 188.806,107.082 186.666,107.082 ZM173.333,81.472 L169.246,93.737 L177.420,93.737 L173.333,81.472 ZM106.666,131.552 L92.000,151.124 L81.334,143.116 L86.666,135.999 L73.652,118.633 L52.212,150.824 L41.120,143.423 L67.786,103.385 C68.986,101.583 70.986,100.476 73.146,100.416 C75.273,100.336 77.366,101.350 78.666,103.078 L95.000,124.878 L101.334,116.425 C103.847,113.061 109.487,113.061 112.000,116.425 L131.999,143.116 L121.333,151.124 L106.666,131.552 ZM60.766,207.631 C67.746,202.967 75.873,200.504 84.266,200.504 C107.606,200.504 126.600,219.515 126.600,242.878 C126.600,251.279 124.133,259.414 119.480,266.400 L89.813,310.976 C88.580,312.831 86.500,313.945 84.266,313.945 C82.040,313.945 79.953,312.831 78.720,310.976 L49.053,266.400 C42.780,256.991 40.540,245.688 42.753,234.583 C44.966,223.486 51.366,213.911 60.766,207.631 ZM60.146,259.000 L84.266,295.241 L108.387,259.000 C111.580,254.202 113.266,248.630 113.266,242.878 C113.266,226.870 100.259,213.851 84.266,213.851 C78.519,213.851 72.952,215.539 68.166,218.735 C61.726,223.039 57.339,229.592 55.826,237.199 C54.306,244.806 55.846,252.547 60.146,259.000 ZM84.266,227.196 C91.630,227.196 97.600,233.171 97.600,240.542 C97.600,247.913 91.630,253.888 84.266,253.888 C76.902,253.888 70.933,247.913 70.933,240.542 C70.933,233.171 76.902,227.196 84.266,227.196 ZM293.333,53.699 C285.969,53.699 279.999,47.724 279.999,40.353 C279.999,32.982 285.969,27.006 293.333,27.006 C300.697,27.006 306.666,32.982 306.666,40.353 C306.666,47.724 300.697,53.699 293.333,53.699 Z"/>
<path fill="url(#PSgrad_0)"
 d="M395.160,373.749 L301.827,400.441 C301.234,400.607 300.620,400.694 300.000,400.694 C299.420,400.694 298.846,400.614 298.280,400.467 L200.000,374.235 L101.720,400.467 C100.560,400.781 99.334,400.775 98.167,400.441 L4.834,373.749 C1.973,372.928 0.000,370.306 0.000,367.330 L0.000,6.988 C0.000,4.892 0.980,2.924 2.653,1.663 C4.327,0.401 6.493,0.001 8.500,0.575 L100.059,26.760 L198.279,0.543 C199.405,0.243 200.585,0.243 201.719,0.543 L260.312,16.183 C262.956,12.877 266.139,9.915 269.840,7.442 C276.812,2.783 284.933,0.315 293.333,0.315 C307.774,0.315 320.545,7.597 328.190,18.680 L391.499,0.575 C393.506,0.001 395.673,0.401 397.346,1.663 C399.020,2.924 400.000,4.892 400.000,6.987 L400.000,367.330 C400.000,370.306 398.027,372.928 395.160,373.749 ZM293.332,13.661 C287.579,13.661 282.019,15.349 277.239,18.539 C263.939,27.428 260.339,45.485 269.212,58.797 L293.333,95.045 L317.453,58.804 C320.646,54.005 322.333,48.434 322.332,42.682 C322.332,26.686 309.325,13.661 293.332,13.661 ZM386.666,15.836 L333.990,30.901 C335.077,34.646 335.672,38.598 335.673,42.689 C335.673,51.090 333.212,59.225 328.552,66.211 L298.886,110.780 C297.646,112.642 295.559,113.756 293.333,113.756 C291.106,113.756 289.026,112.642 287.786,110.780 L258.120,66.204 C250.362,54.566 249.143,40.446 253.579,28.202 L199.999,13.895 L101.720,40.127 C100.559,40.433 99.333,40.433 98.166,40.093 L13.333,15.836 L13.333,362.297 L100.059,387.101 L198.280,360.883 C199.406,360.583 200.586,360.583 201.720,360.883 L299.940,387.101 L386.666,362.298 L386.666,15.836 ZM200.000,273.907 L266.666,273.907 C285.047,273.907 300.000,288.875 300.000,307.272 C300.000,325.670 285.046,340.637 266.666,340.637 L80.000,340.637 L80.000,327.292 L266.666,327.292 C277.693,327.292 286.666,318.310 286.666,307.273 C286.666,296.236 277.693,287.254 266.666,287.254 L200.000,287.254 C181.620,287.254 166.666,272.286 166.666,253.888 C166.666,235.491 181.620,220.523 200.000,220.523 L340.000,220.523 C351.027,220.523 360.000,211.541 360.000,200.504 C360.000,189.467 351.027,180.485 340.000,180.485 L320.000,180.485 C301.620,180.485 286.666,165.517 286.666,147.120 L286.666,127.101 L300.000,127.101 L300.000,147.120 C300.000,158.157 308.973,167.139 320.000,167.139 L340.000,167.139 C358.380,167.139 373.333,182.107 373.334,200.504 C373.334,218.901 358.380,233.869 340.000,233.869 L200.000,233.869 C188.973,233.869 180.000,242.851 180.000,253.888 C180.000,264.925 188.973,273.907 200.000,273.907 ZM333.673,278.471 C334.586,275.742 337.126,273.907 339.999,273.907 C342.873,273.907 345.420,275.742 346.320,278.471 L359.653,318.509 C360.340,320.545 359.993,322.787 358.739,324.522 C357.485,326.263 355.472,327.291 353.332,327.291 L346.666,327.291 L346.666,340.637 L333.333,340.637 L333.333,327.291 L326.666,327.291 C324.526,327.291 322.513,326.263 321.252,324.522 C319.999,322.780 319.659,320.538 320.339,318.509 L333.673,278.471 ZM344.086,313.945 L339.999,301.681 L335.920,313.945 L344.086,313.945 ZM353.333,147.120 L326.666,147.120 C322.980,147.120 320.000,144.131 320.000,140.447 L320.000,120.428 C320.000,118.660 320.700,116.959 321.953,115.711 L335.287,102.364 C337.893,99.756 342.106,99.756 344.713,102.364 L358.046,115.711 C359.300,116.959 360.000,118.660 359.999,120.428 L359.999,140.447 C359.999,144.131 357.020,147.120 353.333,147.120 ZM346.666,123.191 L339.999,116.518 L333.333,123.191 L333.333,133.775 L346.666,133.775 L346.666,123.191 ZM239.998,107.082 L233.334,107.082 L233.334,120.428 L220.000,120.428 L220.000,107.082 L213.332,107.082 C211.192,107.082 209.179,106.055 207.919,104.306 C206.666,102.564 206.326,100.329 207.005,98.293 L220.339,58.255 C221.252,55.533 223.792,53.698 226.666,53.698 C229.539,53.698 232.086,55.533 232.986,58.262 L246.320,98.300 C247.006,100.336 246.659,102.572 245.405,104.313 C244.152,106.055 242.138,107.082 239.998,107.082 ZM226.666,81.472 L222.587,93.737 L230.753,93.737 L226.666,81.472 ZM219.998,173.813 L219.998,193.832 C219.998,197.515 217.019,200.504 213.332,200.504 L186.666,200.504 C182.986,200.504 179.999,197.515 179.999,193.832 L179.999,173.813 C179.999,172.045 180.699,170.343 181.952,169.095 L195.286,155.749 C197.892,153.139 202.105,153.139 204.712,155.749 L218.046,169.095 C219.300,170.342 220.000,172.044 219.998,173.813 ZM206.666,176.575 L199.999,169.902 L193.333,176.575 L193.333,187.158 L206.666,187.158 L206.666,176.575 ZM186.666,107.082 L180.000,107.082 L180.000,120.428 L166.666,120.428 L166.666,107.082 L160.000,107.082 C157.859,107.082 155.846,106.055 154.593,104.306 C153.339,102.564 152.999,100.329 153.673,98.293 L167.006,58.255 C167.920,55.533 170.459,53.698 173.333,53.698 C176.206,53.698 178.752,55.533 179.659,58.262 L192.993,98.300 C193.673,100.336 193.327,102.572 192.073,104.313 C190.820,106.055 188.806,107.082 186.666,107.082 ZM173.333,81.472 L169.246,93.737 L177.420,93.737 L173.333,81.472 ZM106.666,131.552 L92.000,151.124 L81.334,143.116 L86.666,135.999 L73.652,118.633 L52.212,150.824 L41.120,143.423 L67.786,103.385 C68.986,101.583 70.986,100.476 73.146,100.416 C75.273,100.336 77.366,101.350 78.666,103.078 L95.000,124.878 L101.334,116.425 C103.847,113.061 109.487,113.061 112.000,116.425 L131.999,143.116 L121.333,151.124 L106.666,131.552 ZM60.766,207.631 C67.746,202.967 75.873,200.504 84.266,200.504 C107.606,200.504 126.600,219.515 126.600,242.878 C126.600,251.279 124.133,259.414 119.480,266.400 L89.813,310.976 C88.580,312.831 86.500,313.945 84.266,313.945 C82.040,313.945 79.953,312.831 78.720,310.976 L49.053,266.400 C42.780,256.991 40.540,245.688 42.753,234.583 C44.966,223.486 51.366,213.911 60.766,207.631 ZM60.146,259.000 L84.266,295.241 L108.387,259.000 C111.580,254.202 113.266,248.630 113.266,242.878 C113.266,226.870 100.259,213.851 84.266,213.851 C78.519,213.851 72.952,215.539 68.166,218.735 C61.726,223.039 57.339,229.592 55.826,237.199 C54.306,244.806 55.846,252.547 60.146,259.000 ZM84.266,227.196 C91.630,227.196 97.600,233.171 97.600,240.542 C97.600,247.913 91.630,253.888 84.266,253.888 C76.902,253.888 70.933,247.913 70.933,240.542 C70.933,233.171 76.902,227.196 84.266,227.196 ZM293.333,53.699 C285.969,53.699 279.999,47.724 279.999,40.353 C279.999,32.982 285.969,27.006 293.333,27.006 C300.697,27.006 306.666,32.982 306.666,40.353 C306.666,47.724 300.697,53.699 293.333,53.699 Z"/>
</svg>