<svg 
 xmlns="http://www.w3.org/2000/svg"
 xmlns:xlink="http://www.w3.org/1999/xlink"
 width="400px" height="342px">
<defs>
<linearGradient id="PSgrad_0" x1="50%" x2="0%" y1="86.603%" y2="0%">
  <stop offset="0%" stop-color="rgb(90,126,181)" stop-opacity="1" />
  <stop offset="100%" stop-color="rgb(104,191,216)" stop-opacity="1" />
</linearGradient>

</defs>
<path fill-rule="evenodd"  fill="rgb(0, 0, 0)"
 d="M399.914,103.654 C399.908,104.025 399.875,104.394 399.803,104.759 C399.779,104.880 399.734,104.991 399.703,105.109 C399.641,105.346 399.577,105.582 399.486,105.811 C399.422,105.973 399.342,106.124 399.265,106.279 C399.179,106.452 399.092,106.623 398.989,106.789 C398.891,106.946 398.783,107.093 398.672,107.240 C398.609,107.324 398.560,107.415 398.492,107.496 L204.627,338.859 C204.578,338.919 204.522,338.971 204.471,339.029 C204.379,339.129 204.293,339.232 204.195,339.325 C204.119,339.400 204.033,339.462 203.952,339.531 C203.927,339.553 203.902,339.574 203.877,339.595 C203.786,339.672 203.700,339.755 203.605,339.826 C203.545,339.870 203.483,339.909 203.422,339.951 C203.281,340.049 203.132,340.134 202.984,340.219 C202.963,340.231 202.943,340.245 202.922,340.257 C202.896,340.271 202.872,340.289 202.846,340.303 C202.789,340.333 202.735,340.365 202.678,340.393 C202.423,340.519 202.162,340.630 201.893,340.719 C201.862,340.729 201.830,340.735 201.799,340.745 C201.559,340.820 201.314,340.878 201.065,340.923 C201.055,340.925 201.044,340.926 201.034,340.928 C200.689,340.990 200.343,341.027 199.999,341.027 C199.732,341.027 199.469,341.004 199.207,340.969 C199.187,340.966 199.166,340.962 199.146,340.959 C199.074,340.948 199.004,340.936 198.933,340.923 C198.929,340.922 198.925,340.922 198.921,340.921 C198.720,340.884 198.521,340.837 198.325,340.781 C198.278,340.766 198.229,340.762 198.181,340.747 C198.170,340.743 198.160,340.738 198.149,340.733 C197.806,340.622 197.476,340.475 197.157,340.305 C197.156,340.305 197.155,340.305 197.154,340.304 C197.097,340.274 197.041,340.246 196.986,340.214 C196.929,340.182 196.881,340.137 196.826,340.103 C196.625,339.978 196.430,339.846 196.244,339.698 C196.221,339.679 196.194,339.666 196.170,339.646 C196.105,339.593 196.043,339.539 195.981,339.483 C195.961,339.466 195.945,339.445 195.926,339.428 C195.774,339.288 195.631,339.139 195.492,338.984 C195.453,338.940 195.408,338.904 195.370,338.859 L195.301,338.776 C195.280,338.751 195.259,338.728 195.239,338.703 L1.506,107.496 C1.447,107.426 1.406,107.347 1.351,107.275 C1.225,107.112 1.105,106.947 0.996,106.771 C0.906,106.625 0.830,106.473 0.754,106.321 C0.667,106.150 0.578,105.982 0.507,105.802 C0.424,105.591 0.367,105.374 0.308,105.157 C0.272,105.023 0.222,104.895 0.195,104.757 C0.123,104.393 0.090,104.024 0.084,103.654 C0.084,103.627 0.076,103.602 0.076,103.575 C0.076,103.488 0.098,103.408 0.102,103.321 C0.113,103.052 0.136,102.784 0.182,102.517 C0.207,102.377 0.240,102.242 0.274,102.106 C0.329,101.882 0.396,101.663 0.477,101.445 C0.531,101.302 0.585,101.161 0.649,101.023 C0.738,100.831 0.842,100.646 0.952,100.462 C1.036,100.320 1.117,100.178 1.212,100.044 C1.240,100.005 1.259,99.961 1.288,99.922 L73.987,2.506 C74.039,2.437 74.098,2.376 74.152,2.310 C74.201,2.250 74.250,2.191 74.301,2.132 C74.531,1.870 74.778,1.628 75.047,1.412 C75.083,1.383 75.123,1.357 75.160,1.328 C75.772,0.859 76.466,0.512 77.208,0.304 C77.241,0.294 77.273,0.283 77.306,0.274 C77.658,0.182 78.020,0.125 78.388,0.097 C78.430,0.094 78.470,0.092 78.511,0.090 C78.619,0.084 78.725,0.071 78.834,0.071 L199.666,0.071 C199.698,0.069 199.731,0.072 199.763,0.071 L321.164,0.071 C321.229,0.071 321.292,0.080 321.356,0.082 C321.480,0.086 321.602,0.093 321.726,0.104 C322.023,0.132 322.316,0.177 322.603,0.248 C322.718,0.276 322.831,0.315 322.945,0.350 C323.191,0.426 323.432,0.517 323.666,0.624 C323.736,0.655 323.809,0.670 323.878,0.704 C323.947,0.739 324.002,0.789 324.069,0.826 C324.295,0.950 324.512,1.089 324.721,1.241 C324.817,1.312 324.915,1.378 325.006,1.453 C325.233,1.640 325.444,1.847 325.643,2.068 C325.731,2.166 325.814,2.266 325.895,2.369 C325.932,2.416 325.975,2.458 326.011,2.506 L398.710,99.922 C398.744,99.968 398.766,100.019 398.799,100.066 C398.881,100.182 398.950,100.305 399.024,100.427 C399.147,100.629 399.261,100.832 399.357,101.044 C399.415,101.170 399.465,101.299 399.514,101.430 C399.600,101.657 399.670,101.886 399.727,102.119 C399.760,102.250 399.791,102.380 399.815,102.515 C399.862,102.783 399.885,103.052 399.896,103.323 C399.900,103.408 399.921,103.489 399.921,103.575 C399.921,103.602 399.914,103.627 399.914,103.654 ZM380.836,109.664 L277.142,109.664 L214.922,307.679 L380.836,109.664 ZM200.001,314.751 L264.444,109.664 L135.558,109.664 L200.001,314.751 ZM185.082,307.686 L122.859,109.664 L19.162,109.664 L185.082,307.686 ZM77.792,17.703 L18.257,97.487 L117.485,97.487 L77.792,17.703 ZM88.630,12.248 L128.336,92.056 L187.895,12.248 L88.630,12.248 ZM139.428,97.487 L260.582,97.487 L200.005,16.315 L139.428,97.487 ZM271.663,92.041 L311.362,12.248 L212.115,12.248 L271.663,92.041 ZM322.202,17.699 L282.506,97.487 L381.741,97.487 L322.202,17.699 Z"/>
<path fill="url(#PSgrad_0)"
 d="M399.914,103.654 C399.908,104.025 399.875,104.394 399.803,104.759 C399.779,104.880 399.734,104.991 399.703,105.109 C399.641,105.346 399.577,105.582 399.486,105.811 C399.422,105.973 399.342,106.124 399.265,106.279 C399.179,106.452 399.092,106.623 398.989,106.789 C398.891,106.946 398.783,107.093 398.672,107.240 C398.609,107.324 398.560,107.415 398.492,107.496 L204.627,338.859 C204.578,338.919 204.522,338.971 204.471,339.029 C204.379,339.129 204.293,339.232 204.195,339.325 C204.119,339.400 204.033,339.462 203.952,339.531 C203.927,339.553 203.902,339.574 203.877,339.595 C203.786,339.672 203.700,339.755 203.605,339.826 C203.545,339.870 203.483,339.909 203.422,339.951 C203.281,340.049 203.132,340.134 202.984,340.219 C202.963,340.231 202.943,340.245 202.922,340.257 C202.896,340.271 202.872,340.289 202.846,340.303 C202.789,340.333 202.735,340.365 202.678,340.393 C202.423,340.519 202.162,340.630 201.893,340.719 C201.862,340.729 201.830,340.735 201.799,340.745 C201.559,340.820 201.314,340.878 201.065,340.923 C201.055,340.925 201.044,340.926 201.034,340.928 C200.689,340.990 200.343,341.027 199.999,341.027 C199.732,341.027 199.469,341.004 199.207,340.969 C199.187,340.966 199.166,340.962 199.146,340.959 C199.074,340.948 199.004,340.936 198.933,340.923 C198.929,340.922 198.925,340.922 198.921,340.921 C198.720,340.884 198.521,340.837 198.325,340.781 C198.278,340.766 198.229,340.762 198.181,340.747 C198.170,340.743 198.160,340.738 198.149,340.733 C197.806,340.622 197.476,340.475 197.157,340.305 C197.156,340.305 197.155,340.305 197.154,340.304 C197.097,340.274 197.041,340.246 196.986,340.214 C196.929,340.182 196.881,340.137 196.826,340.103 C196.625,339.978 196.430,339.846 196.244,339.698 C196.221,339.679 196.194,339.666 196.170,339.646 C196.105,339.593 196.043,339.539 195.981,339.483 C195.961,339.466 195.945,339.445 195.926,339.428 C195.774,339.288 195.631,339.139 195.492,338.984 C195.453,338.940 195.408,338.904 195.370,338.859 L195.301,338.776 C195.280,338.751 195.259,338.728 195.239,338.703 L1.506,107.496 C1.447,107.426 1.406,107.347 1.351,107.275 C1.225,107.112 1.105,106.947 0.996,106.771 C0.906,106.625 0.830,106.473 0.754,106.321 C0.667,106.150 0.578,105.982 0.507,105.802 C0.424,105.591 0.367,105.374 0.308,105.157 C0.272,105.023 0.222,104.895 0.195,104.757 C0.123,104.393 0.090,104.024 0.084,103.654 C0.084,103.627 0.076,103.602 0.076,103.575 C0.076,103.488 0.098,103.408 0.102,103.321 C0.113,103.052 0.136,102.784 0.182,102.517 C0.207,102.377 0.240,102.242 0.274,102.106 C0.329,101.882 0.396,101.663 0.477,101.445 C0.531,101.302 0.585,101.161 0.649,101.023 C0.738,100.831 0.842,100.646 0.952,100.462 C1.036,100.320 1.117,100.178 1.212,100.044 C1.240,100.005 1.259,99.961 1.288,99.922 L73.987,2.506 C74.039,2.437 74.098,2.376 74.152,2.310 C74.201,2.250 74.250,2.191 74.301,2.132 C74.531,1.870 74.778,1.628 75.047,1.412 C75.083,1.383 75.123,1.357 75.160,1.328 C75.772,0.859 76.466,0.512 77.208,0.304 C77.241,0.294 77.273,0.283 77.306,0.274 C77.658,0.182 78.020,0.125 78.388,0.097 C78.430,0.094 78.470,0.092 78.511,0.090 C78.619,0.084 78.725,0.071 78.834,0.071 L199.666,0.071 C199.698,0.069 199.731,0.072 199.763,0.071 L321.164,0.071 C321.229,0.071 321.292,0.080 321.356,0.082 C321.480,0.086 321.602,0.093 321.726,0.104 C322.023,0.132 322.316,0.177 322.603,0.248 C322.718,0.276 322.831,0.315 322.945,0.350 C323.191,0.426 323.432,0.517 323.666,0.624 C323.736,0.655 323.809,0.670 323.878,0.704 C323.947,0.739 324.002,0.789 324.069,0.826 C324.295,0.950 324.512,1.089 324.721,1.241 C324.817,1.312 324.915,1.378 325.006,1.453 C325.233,1.640 325.444,1.847 325.643,2.068 C325.731,2.166 325.814,2.266 325.895,2.369 C325.932,2.416 325.975,2.458 326.011,2.506 L398.710,99.922 C398.744,99.968 398.766,100.019 398.799,100.066 C398.881,100.182 398.950,100.305 399.024,100.427 C399.147,100.629 399.261,100.832 399.357,101.044 C399.415,101.170 399.465,101.299 399.514,101.430 C399.600,101.657 399.670,101.886 399.727,102.119 C399.760,102.250 399.791,102.380 399.815,102.515 C399.862,102.783 399.885,103.052 399.896,103.323 C399.900,103.408 399.921,103.489 399.921,103.575 C399.921,103.602 399.914,103.627 399.914,103.654 ZM380.836,109.664 L277.142,109.664 L214.922,307.679 L380.836,109.664 ZM200.001,314.751 L264.444,109.664 L135.558,109.664 L200.001,314.751 ZM185.082,307.686 L122.859,109.664 L19.162,109.664 L185.082,307.686 ZM77.792,17.703 L18.257,97.487 L117.485,97.487 L77.792,17.703 ZM88.630,12.248 L128.336,92.056 L187.895,12.248 L88.630,12.248 ZM139.428,97.487 L260.582,97.487 L200.005,16.315 L139.428,97.487 ZM271.663,92.041 L311.362,12.248 L212.115,12.248 L271.663,92.041 ZM322.202,17.699 L282.506,97.487 L381.741,97.487 L322.202,17.699 Z"/>
</svg>