<svg
 xmlns="http://www.w3.org/2000/svg"
 xmlns:xlink="http://www.w3.org/1999/xlink"
 width="23px" height="23px">
<path fill-rule="evenodd"  fill="rgb(255, 255, 255)"
 d="M11.313,11.855 C11.234,11.938 11.126,11.985 11.014,11.985 C10.902,11.985 10.794,11.938 10.715,11.855 L0.121,0.727 C-0.044,0.553 -0.044,0.272 0.121,0.099 C0.286,-0.075 0.554,-0.075 0.719,0.099 L11.014,10.913 L21.309,0.099 C21.474,-0.075 21.741,-0.075 21.907,0.099 C22.072,0.272 22.072,0.553 21.907,0.727 L11.313,11.855 ZM0.719,11.114 L11.014,21.928 L21.309,11.114 C21.474,10.940 21.741,10.940 21.907,11.114 C22.072,11.287 22.072,11.568 21.907,11.742 L11.313,22.870 C11.234,22.953 11.126,23.000 11.014,23.000 C10.902,23.000 10.794,22.953 10.715,22.870 L0.121,11.742 C-0.044,11.568 -0.044,11.287 0.121,11.114 C0.286,10.940 0.554,10.940 0.719,11.114 Z"/>
</svg>
