<svg
 xmlns="http://www.w3.org/2000/svg"
 xmlns:xlink="http://www.w3.org/1999/xlink"
 width="23px" height="24px">
<path fill-rule="evenodd"  fill="rgb(255, 255, 255)"
 d="M21.312,11.886 L11.017,1.072 L0.722,11.886 C0.557,12.060 0.290,12.060 0.125,11.886 C-0.040,11.713 -0.040,11.432 0.125,11.258 L10.718,0.130 C10.798,0.047 10.905,-0.000 11.017,-0.000 C11.129,-0.000 11.237,0.047 11.316,0.130 L21.910,11.258 C22.075,11.432 22.075,11.713 21.910,11.886 C21.745,12.060 21.477,12.060 21.312,11.886 ZM10.718,11.145 C10.798,11.062 10.905,11.015 11.017,11.015 C11.129,11.015 11.237,11.062 11.316,11.145 L21.910,22.273 C22.075,22.447 22.075,22.728 21.910,22.901 C21.745,23.075 21.477,23.075 21.312,22.901 L11.017,12.087 L0.722,22.901 C0.557,23.075 0.290,23.075 0.125,22.901 C-0.040,22.728 -0.040,22.447 0.125,22.273 L10.718,11.145 Z"/>
</svg>
