<svg 
 xmlns="http://www.w3.org/2000/svg"
 xmlns:xlink="http://www.w3.org/1999/xlink"
 width="20px" height="11px">
<defs>
<linearGradient id="PSgrad_0" x1="50%" x2="0%" y1="86.603%" y2="0%">
  <stop offset="0%" stop-color="rgb(90,126,181)" stop-opacity="1" />
  <stop offset="100%" stop-color="rgb(104,191,216)" stop-opacity="1" />
</linearGradient>

</defs>
<path fill-rule="evenodd"  fill="rgb(10, 86, 155)"
 d="M10.381,10.796 L19.799,1.004 C20.021,0.774 20.021,0.404 19.799,0.173 C19.577,-0.058 19.222,-0.058 19.000,0.173 L9.983,9.548 L0.966,0.173 C0.745,-0.058 0.389,-0.058 0.167,0.173 C0.059,0.286 0.000,0.438 0.000,0.586 C0.000,0.735 0.054,0.887 0.167,1.000 L9.586,10.792 C9.803,11.022 10.163,11.022 10.381,10.796 Z"/>
<path fill="url(#PSgrad_0)"
 d="M10.381,10.796 L19.799,1.004 C20.021,0.774 20.021,0.404 19.799,0.173 C19.577,-0.058 19.222,-0.058 19.000,0.173 L9.983,9.548 L0.966,0.173 C0.745,-0.058 0.389,-0.058 0.167,0.173 C0.059,0.286 0.000,0.438 0.000,0.586 C0.000,0.735 0.054,0.887 0.167,1.000 L9.586,10.792 C9.803,11.022 10.163,11.022 10.381,10.796 Z"/>
</svg>