<svg 
 xmlns="http://www.w3.org/2000/svg"
 xmlns:xlink="http://www.w3.org/1999/xlink"
 width="18px" height="13px">
<path fill-rule="evenodd"  fill="rgb(0, 84, 157)"
 d="M1.312,-0.000 C4.935,-0.000 8.559,-0.000 12.182,-0.000 C13.040,-0.000 13.899,-0.000 14.756,-0.000 C15.444,-0.000 16.003,-0.008 16.392,0.265 C17.074,0.746 16.997,1.526 16.997,2.655 C16.997,4.219 16.997,5.783 16.997,7.346 C16.997,8.428 16.997,9.510 16.997,10.592 C16.997,11.356 17.018,11.995 16.694,12.421 C16.249,13.006 15.458,12.982 14.393,12.982 C12.980,12.982 11.567,12.982 10.154,12.982 C7.923,12.982 5.692,12.982 3.462,12.982 C2.453,12.982 1.198,13.108 0.615,12.686 C-0.193,12.103 0.040,10.490 0.040,9.146 C0.040,7.258 0.040,5.369 0.040,3.482 C0.040,2.844 -0.082,1.449 0.100,0.973 C0.250,0.584 0.639,0.205 1.039,0.059 C1.139,0.023 1.236,0.048 1.312,-0.000 ZM1.493,1.180 C1.461,1.202 1.465,1.198 1.402,1.210 C1.372,1.249 1.342,1.288 1.312,1.328 C1.120,1.574 1.401,2.428 1.493,2.626 C2.016,3.744 2.953,4.365 3.916,5.045 C5.051,5.848 6.073,6.812 7.216,7.612 C7.579,7.866 8.107,8.424 8.791,8.232 C9.633,7.994 10.185,7.274 10.820,6.815 C11.764,6.134 12.637,5.363 13.575,4.691 C14.017,4.375 14.581,4.053 14.908,3.629 C15.283,3.141 15.625,2.678 15.786,1.977 C15.848,1.707 15.794,1.318 15.634,1.239 C15.473,1.105 14.910,1.180 14.635,1.180 C13.747,1.180 12.859,1.180 11.971,1.180 C8.478,1.180 4.985,1.180 1.493,1.180 ZM1.251,4.455 C1.251,6.274 1.251,8.094 1.251,9.913 C1.251,10.369 1.145,11.567 1.402,11.742 C1.554,11.853 1.969,11.801 2.220,11.801 C2.926,11.801 3.633,11.801 4.340,11.801 C7.065,11.801 9.791,11.801 12.516,11.801 C13.293,11.801 14.070,11.801 14.847,11.801 C15.195,11.801 15.581,11.856 15.725,11.654 C15.813,11.540 15.786,11.291 15.786,11.093 C15.786,10.641 15.786,10.189 15.786,9.736 C15.786,7.976 15.786,6.215 15.786,4.455 C15.776,4.455 15.766,4.455 15.756,4.455 C15.500,4.823 15.063,5.077 14.696,5.340 C14.329,5.602 13.980,5.898 13.606,6.166 C12.764,6.768 11.994,7.472 11.153,8.084 C10.792,8.346 10.484,8.704 10.093,8.940 C9.566,9.258 8.680,9.622 7.852,9.353 C6.797,9.009 6.168,8.254 5.369,7.671 C4.243,6.849 3.177,5.978 2.038,5.163 C1.755,4.960 1.543,4.645 1.251,4.455 Z"/>
</svg>