<svg 
 xmlns="http://www.w3.org/2000/svg"
 xmlns:xlink="http://www.w3.org/1999/xlink"
 width="11px" height="15px">
<path fill-rule="evenodd"  fill="rgb(0, 84, 157)"
 d="M5.500,0.000 C2.467,0.000 0.000,2.477 0.000,5.522 C0.000,6.317 0.162,7.075 0.481,7.777 C1.856,10.797 4.493,13.987 5.268,14.893 C5.326,14.961 5.411,14.999 5.500,14.999 C5.589,14.999 5.674,14.961 5.732,14.893 C6.507,13.987 9.144,10.798 10.519,7.777 C10.838,7.075 11.000,6.317 11.000,5.522 C11.000,2.477 8.532,0.000 5.500,0.000 ZM5.500,8.391 C3.925,8.391 2.643,7.104 2.643,5.522 C2.643,3.941 3.925,2.654 5.500,2.654 C7.075,2.654 8.357,3.941 8.357,5.522 C8.357,7.104 7.075,8.391 5.500,8.391 Z"/>
</svg>