<svg xmlns="http://www.w3.org/2000/svg" width="20" height="20" viewBox="0 0 20 20">
  <defs>
    <style>
      .cls-1 {
        fill: #fff;
        fill-rule: evenodd;
      }
    </style>
  </defs>
  <path id="Фигура_1" data-name="Фигура 1" class="cls-1" d="M1354.71,48a4.7,4.7,0,0,1,.98.076c0.29,0.586.72,1.185,1.05,1.74,0.26,0.427.35,0.86,0.61,1.287a3.97,3.97,0,0,1,.98,1.816,33.758,33.758,0,0,1-2.56,2.572,4.271,4.271,0,0,0,1.13,2.346,13.367,13.367,0,0,0,4.22,4.238,5.489,5.489,0,0,0,2.26,1.211,11.134,11.134,0,0,0,1.66-1.816l0.9-.756c0.91-.007,2.89,1.447,3.62,1.892a2.441,2.441,0,0,1,1.28.832c0.45,0.517-.16,1.925-0.38,2.346-0.81,1.568-3.62,2.758-6.03,1.967A19.344,19.344,0,0,1,1352.3,57.08c-0.47-1.115-1.63-3.251-1.21-5.07a7.8,7.8,0,0,1,1.13-2.648,3.166,3.166,0,0,1,1.51-1.135A4.34,4.34,0,0,0,1354.71,48Z" transform="translate(-1351 -48)"/>
</svg>
