<svg 
 xmlns="http://www.w3.org/2000/svg"
 xmlns:xlink="http://www.w3.org/1999/xlink"
 width="23px" height="22px">
<path fill-rule="evenodd"  fill="rgb(255, 255, 255)"
 d="M22.870,11.284 L11.757,21.847 C11.584,22.012 11.303,22.012 11.130,21.847 C10.956,21.683 10.956,21.416 11.130,21.251 L21.929,10.985 L11.130,0.720 C10.956,0.556 10.956,0.289 11.130,0.124 C11.303,-0.041 11.584,-0.041 11.757,0.124 L22.870,10.688 C22.953,10.767 23.000,10.873 23.000,10.985 C23.000,11.097 22.953,11.205 22.870,11.284 ZM12.000,10.985 C12.000,11.097 11.953,11.205 11.870,11.284 L0.757,21.847 C0.584,22.012 0.303,22.012 0.130,21.847 C-0.044,21.683 -0.044,21.416 0.130,21.251 L10.929,10.985 L0.130,0.720 C-0.044,0.556 -0.044,0.289 0.130,0.124 C0.303,-0.041 0.584,-0.041 0.757,0.124 L11.870,10.688 C11.953,10.767 12.000,10.873 12.000,10.985 Z"/>
</svg>