<svg 
 xmlns="http://www.w3.org/2000/svg"
 xmlns:xlink="http://www.w3.org/1999/xlink"
 width="24px" height="23px">
<path fill-rule="evenodd"  fill="rgb(56, 62, 76)"
 d="M12.087,11.014 L22.901,21.309 C23.075,21.474 23.075,21.741 22.901,21.907 C22.728,22.072 22.447,22.072 22.273,21.907 L11.145,11.313 C11.062,11.234 11.015,11.127 11.015,11.014 C11.015,10.902 11.062,10.794 11.145,10.715 L22.273,0.122 C22.447,-0.044 22.728,-0.044 22.901,0.122 C23.075,0.287 23.075,0.554 22.901,0.719 L12.087,11.014 ZM1.072,11.014 L11.886,21.309 C12.060,21.474 12.060,21.741 11.886,21.907 C11.713,22.072 11.432,22.072 11.259,21.907 L0.130,11.313 C0.047,11.234 -0.000,11.127 -0.000,11.014 C-0.000,10.902 0.047,10.794 0.130,10.715 L11.259,0.122 C11.432,-0.044 11.713,-0.044 11.886,0.122 C12.060,0.287 12.060,0.554 11.886,0.719 L1.072,11.014 Z"/>
</svg>