<svg
 xmlns="http://www.w3.org/2000/svg"
 xmlns:xlink="http://www.w3.org/1999/xlink"
 width="512px" height="491px">
<path fill-rule="evenodd"  fill="#fff"
 d="M438.857,459.660 L340.222,459.660 L371.569,491.000 L31.347,491.000 L31.347,459.660 L0.000,459.660 L0.000,113.870 L214.883,113.870 L214.883,-0.000 L256.679,-0.000 L256.679,113.870 L282.122,113.870 L282.122,129.540 L256.679,129.540 L256.679,281.699 L235.781,315.129 L214.883,281.699 L214.883,129.540 L15.673,129.540 L15.673,443.990 L31.347,443.990 L31.347,150.845 L324.549,443.988 L438.857,443.988 C470.545,443.988 496.326,418.212 496.326,386.531 C496.326,354.849 470.546,329.074 438.857,329.074 L438.857,313.404 C462.152,313.404 482.922,324.362 496.326,341.377 L496.326,73.127 C496.326,41.445 470.546,15.670 438.857,15.670 L438.857,-0.000 C479.188,-0.000 512.000,32.805 512.000,73.128 L512.000,386.532 C512.000,426.855 479.188,459.660 438.857,459.660 ZM230.558,277.206 L235.782,285.563 L241.006,277.206 L241.006,41.787 L230.558,41.787 L230.558,277.206 ZM230.557,26.116 L241.006,26.116 L241.006,15.670 L230.557,15.670 L230.557,26.116 ZM47.020,188.678 L47.020,224.607 L70.530,224.607 L70.530,240.277 L47.020,240.277 L47.020,261.171 L60.081,261.171 L60.081,276.841 L47.020,276.841 L47.020,297.734 L70.530,297.734 L70.530,313.405 L47.020,313.405 L47.020,334.299 L60.081,334.299 L60.081,349.968 L47.020,349.968 L47.020,370.863 L70.530,370.863 L70.530,386.533 L47.020,386.533 L47.020,407.427 L60.081,407.427 L60.081,423.096 L47.020,423.096 L47.020,443.990 L70.530,443.990 L70.530,459.661 L47.020,459.661 L47.020,475.331 L47.020,475.332 L333.731,475.332 L47.020,188.678 ZM245.437,434.586 L83.592,434.586 L83.597,272.777 L245.437,434.586 ZM207.598,418.916 L99.269,310.608 L99.266,418.916 L207.598,418.916 ZM438.857,129.540 L397.061,129.540 L397.061,113.870 L438.857,113.870 L438.857,129.540 ZM382.490,150.957 L417.220,311.837 L386.329,311.837 L339.593,181.939 L292.858,311.837 L261.967,311.837 L296.696,150.957 L305.774,150.957 C299.179,143.206 295.185,133.177 295.185,122.228 C295.185,100.420 310.996,82.248 331.756,78.535 L331.756,67.382 L316.082,67.382 L316.082,9.925 L363.102,9.925 L363.102,67.382 L347.429,67.382 L347.429,78.535 C368.189,82.248 384.000,100.421 384.000,122.228 C384.000,133.177 380.007,143.206 373.411,150.957 L382.490,150.957 ZM281.382,296.168 L281.838,296.168 L328.445,166.627 L309.347,166.627 L281.382,296.168 ZM347.428,25.595 L331.755,25.595 L331.755,51.711 L347.428,51.711 L347.428,25.595 ZM339.592,93.499 C323.747,93.499 310.857,106.386 310.857,122.228 C310.857,138.069 323.747,150.957 339.592,150.957 C355.437,150.957 368.327,138.069 368.327,122.228 C368.327,106.386 355.437,93.499 339.592,93.499 ZM369.837,166.626 L350.739,166.626 L397.346,296.167 L397.802,296.167 L369.837,166.626 ZM339.592,143.121 C328.069,143.121 318.694,133.748 318.694,122.228 C318.694,110.707 328.069,101.334 339.592,101.334 C351.115,101.334 360.490,110.707 360.490,122.228 C360.490,133.748 351.115,143.121 339.592,143.121 ZM339.592,117.005 C336.712,117.005 334.368,119.347 334.368,122.228 C334.368,125.107 336.711,127.451 339.592,127.451 C342.473,127.451 344.816,125.108 344.816,122.228 C344.816,119.348 342.473,117.005 339.592,117.005 Z"/>
</svg>
