<svg
 xmlns="http://www.w3.org/2000/svg"
 xmlns:xlink="http://www.w3.org/1999/xlink"
 width="228px" height="214px">
<path fill-rule="evenodd"  fill="#fff"
 d="M218.307,114.472 L216.445,114.932 C216.347,118.619 215.800,122.261 214.812,125.818 L216.453,126.800 C219.299,128.505 221.306,131.207 222.108,134.407 C222.913,137.616 222.409,140.952 220.689,143.801 C218.986,146.633 216.273,148.636 213.057,149.439 C209.833,150.237 206.499,149.747 203.662,148.046 L202.017,147.060 C199.329,149.599 196.363,151.792 193.147,153.611 L193.612,155.463 C194.413,158.671 193.921,161.999 192.217,164.829 C190.514,167.663 187.793,169.666 184.562,170.470 C183.559,170.719 182.542,170.844 181.534,170.844 C179.310,170.844 177.118,170.244 175.164,169.072 C172.319,167.369 170.311,164.665 169.510,161.457 L169.049,159.605 C165.352,159.503 161.701,158.957 158.134,157.975 L157.150,159.611 C155.438,162.451 152.730,164.454 149.521,165.253 C146.298,166.057 142.965,165.554 140.107,163.840 C137.266,162.138 135.258,159.433 134.453,156.222 C133.652,153.012 134.148,149.683 135.852,146.850 L136.840,145.212 C134.293,142.530 132.096,139.571 130.275,136.365 L128.418,136.827 C121.787,138.477 115.026,134.426 113.369,127.798 C112.568,124.588 113.064,121.257 114.772,118.421 C116.479,115.583 119.192,113.581 122.404,112.782 L124.264,112.318 C124.362,108.632 124.909,104.989 125.897,101.432 L124.256,100.450 C121.411,98.744 119.403,96.043 118.601,92.842 C117.796,89.636 118.296,86.302 120.012,83.451 C121.720,80.615 124.436,78.612 127.652,77.811 C130.876,77.001 134.209,77.504 137.050,79.208 L138.692,80.191 C141.380,77.652 144.346,75.460 147.559,73.642 L147.097,71.790 C145.441,65.166 149.504,58.434 156.148,56.781 C162.804,55.118 169.545,59.172 171.201,65.790 L171.667,67.645 C175.359,67.747 179.010,68.293 182.577,69.275 L183.562,67.636 C185.273,64.800 187.981,62.797 191.190,61.998 C194.417,61.190 197.747,61.695 200.604,63.411 C203.445,65.112 205.453,67.818 206.258,71.028 C207.059,74.239 206.563,77.568 204.860,80.400 L203.871,82.039 C206.418,84.721 208.615,87.680 210.440,90.888 L212.293,90.426 C218.928,88.780 225.685,92.822 227.342,99.453 C229.000,106.081 224.947,112.817 218.307,114.472 ZM219.571,101.387 C218.972,98.985 216.628,97.586 214.228,98.173 L209.316,99.395 C207.464,99.853 205.557,98.955 204.737,97.239 C202.631,92.835 199.730,88.927 196.112,85.622 C194.709,84.340 194.405,82.250 195.386,80.622 L197.996,76.289 C198.601,75.285 198.777,74.103 198.492,72.963 C198.203,71.821 197.491,70.861 196.479,70.254 C195.459,69.641 194.267,69.461 193.126,69.743 C191.988,70.026 191.028,70.739 190.422,71.749 L187.811,76.084 C186.826,77.712 184.833,78.427 183.043,77.790 C178.428,76.157 173.613,75.430 168.717,75.650 C166.843,75.695 165.119,74.469 164.658,72.627 L163.434,67.725 C162.848,65.377 160.444,63.936 158.084,64.529 C155.719,65.117 154.269,67.508 154.860,69.860 L156.083,74.760 C156.548,76.602 155.642,78.514 153.922,79.331 C149.513,81.425 145.594,84.319 142.280,87.928 C140.995,89.329 138.904,89.635 137.270,88.655 L132.924,86.052 C131.920,85.451 130.735,85.271 129.591,85.557 C128.441,85.842 127.477,86.555 126.871,87.565 C126.257,88.583 126.073,89.770 126.359,90.906 C126.645,92.041 127.359,92.999 128.371,93.606 L132.717,96.210 C134.351,97.189 135.066,99.179 134.429,100.970 C132.788,105.574 132.069,110.380 132.284,115.257 C132.370,117.152 131.101,118.846 129.256,119.306 L124.340,120.529 C123.198,120.814 122.237,121.523 121.632,122.531 C121.026,123.539 120.846,124.725 121.135,125.867 C121.730,128.263 124.063,129.680 126.482,129.083 L131.390,127.860 C133.258,127.404 135.153,128.302 135.970,130.015 C138.076,134.419 140.976,138.328 144.594,141.633 C145.997,142.915 146.301,145.005 145.321,146.633 L142.710,150.966 C142.105,151.970 141.929,153.152 142.214,154.291 C142.503,155.434 143.215,156.394 144.227,157.001 C145.256,157.616 146.447,157.800 147.581,157.512 C148.718,157.228 149.678,156.516 150.285,155.506 L152.892,151.175 C153.873,149.543 155.874,148.831 157.660,149.465 C162.283,151.098 167.109,151.827 171.990,151.605 C172.049,151.603 172.108,151.601 172.166,151.601 C173.995,151.601 175.601,152.842 176.050,154.626 L177.274,159.528 C177.559,160.666 178.274,161.625 179.283,162.229 C180.295,162.835 181.487,163.015 182.624,162.726 C183.781,162.438 184.749,161.726 185.355,160.722 C185.957,159.720 186.133,158.541 185.848,157.397 L184.621,152.493 C184.164,150.651 185.066,148.741 186.786,147.924 C191.195,145.829 195.114,142.936 198.428,139.327 C199.717,137.927 201.812,137.627 203.438,138.600 L207.784,141.204 C208.792,141.810 209.969,141.985 211.117,141.697 C212.263,141.412 213.227,140.699 213.833,139.691 C214.452,138.669 214.631,137.482 214.346,136.346 C214.063,135.213 213.349,134.255 212.337,133.648 L207.991,131.045 C206.357,130.066 205.642,128.076 206.279,126.287 C207.920,121.681 208.639,116.873 208.424,111.996 C208.338,110.099 209.608,108.405 211.452,107.947 L216.366,106.726 C218.722,106.140 220.161,103.743 219.571,101.387 ZM174.380,129.724 C173.035,130.059 171.683,130.219 170.358,130.219 C162.902,130.219 156.106,125.174 154.218,117.640 C153.144,113.340 153.812,108.881 156.102,105.082 C158.387,101.283 162.023,98.601 166.332,97.529 C170.650,96.453 175.121,97.126 178.920,99.406 C182.726,101.689 185.414,105.312 186.494,109.613 C188.710,118.489 183.278,127.509 174.380,129.724 ZM178.726,111.545 C178.170,109.313 176.775,107.433 174.798,106.247 C173.437,105.433 171.918,105.016 170.374,105.016 C169.674,105.016 168.966,105.102 168.271,105.275 C166.032,105.833 164.149,107.224 162.961,109.195 C161.776,111.165 161.429,113.478 161.988,115.707 C163.140,120.313 167.833,123.127 172.441,121.978 C174.680,121.420 176.563,120.028 177.751,118.059 C178.939,116.088 179.283,113.775 178.726,111.545 ZM112.607,53.045 L111.668,53.192 C111.324,55.800 110.711,58.356 109.832,60.837 L110.598,61.393 C112.928,63.081 114.456,65.568 114.905,68.393 C115.358,71.226 114.670,74.070 112.971,76.401 C111.283,78.723 108.786,80.249 105.941,80.699 C103.096,81.141 100.255,80.465 97.934,78.781 L97.167,78.227 C95.076,79.827 92.830,81.199 90.446,82.332 L90.594,83.270 C91.520,89.119 87.502,94.629 81.637,95.555 C81.067,95.645 80.491,95.690 79.925,95.690 C77.670,95.690 75.478,94.984 73.621,93.639 C71.291,91.951 69.760,89.462 69.315,86.628 L69.163,85.694 C66.548,85.352 63.984,84.739 61.499,83.859 L60.941,84.628 C57.452,89.415 50.710,90.479 45.900,86.996 C41.097,83.513 40.022,76.783 43.508,71.993 L44.066,71.225 C42.460,69.139 41.085,66.898 39.951,64.522 L39.009,64.671 C33.174,65.597 27.626,61.589 26.696,55.736 C25.770,49.881 29.783,44.365 35.642,43.439 L36.584,43.291 C36.924,40.680 37.541,38.126 38.421,35.649 L37.650,35.092 C35.324,33.405 33.793,30.918 33.344,28.092 C32.891,25.258 33.579,22.414 35.278,20.082 C38.772,15.292 45.521,14.222 50.317,17.701 L51.087,18.258 C53.178,16.656 55.425,15.284 57.809,14.151 L57.661,13.213 C57.208,10.381 57.887,7.543 59.576,5.227 C61.263,2.906 63.764,1.380 66.618,0.928 C72.456,-0.001 78.008,4.004 78.939,9.850 L79.087,10.791 C81.705,11.132 84.269,11.744 86.754,12.623 L87.312,11.857 C89.001,9.535 91.494,8.007 94.331,7.559 C97.153,7.097 100.010,7.791 102.351,9.489 C104.680,11.174 106.211,13.665 106.660,16.503 C107.114,19.338 106.430,22.176 104.738,24.493 L104.182,25.256 C105.788,27.342 107.164,29.583 108.301,31.961 L109.239,31.814 C115.070,30.883 120.622,34.893 121.553,40.749 C122.006,43.583 121.322,46.423 119.634,48.746 C117.941,51.069 115.448,52.595 112.607,53.045 ZM113.649,42.000 C113.407,40.466 112.020,39.434 110.488,39.700 L106.462,40.335 C104.617,40.638 102.758,39.571 102.089,37.789 C100.741,34.197 98.748,30.947 96.157,28.131 C94.871,26.733 94.750,24.624 95.868,23.088 L98.259,19.799 C98.693,19.202 98.868,18.476 98.755,17.752 C98.638,17.021 98.244,16.381 97.646,15.946 C97.040,15.506 96.317,15.322 95.579,15.443 C94.855,15.558 94.219,15.950 93.785,16.546 L91.386,19.837 C90.268,21.375 88.225,21.913 86.490,21.121 C83.004,19.535 79.288,18.648 75.450,18.482 C73.547,18.401 71.969,16.993 71.672,15.118 L71.034,11.101 C70.792,9.606 69.374,8.561 67.865,8.815 C67.127,8.933 66.482,9.324 66.048,9.919 C65.618,10.510 65.447,11.237 65.560,11.964 L66.197,15.984 C66.498,17.860 65.427,19.684 63.645,20.349 C60.050,21.688 56.790,23.678 53.965,26.263 C52.562,27.549 50.448,27.670 48.908,26.551 L45.610,24.162 C44.391,23.277 42.647,23.546 41.749,24.782 C41.311,25.384 41.132,26.115 41.245,26.840 C41.362,27.561 41.752,28.198 42.354,28.633 L45.652,31.024 C47.191,32.141 47.731,34.186 46.937,35.912 C45.348,39.385 44.456,43.089 44.292,46.921 C44.210,48.819 42.800,50.396 40.920,50.692 L36.891,51.328 C35.390,51.566 34.363,52.985 34.601,54.492 C34.839,56.018 36.215,57.044 37.758,56.788 L41.787,56.150 C43.655,55.864 45.496,56.919 46.160,58.700 C47.500,62.285 49.497,65.534 52.092,68.357 C53.378,69.757 53.499,71.866 52.378,73.402 L49.983,76.688 C49.091,77.915 49.369,79.645 50.604,80.539 C51.865,81.451 53.558,81.186 54.468,79.936 L56.863,76.648 C57.633,75.588 58.852,75.003 60.099,75.003 C60.657,75.003 61.224,75.120 61.759,75.364 C65.245,76.948 68.958,77.837 72.799,78.004 C74.699,78.086 76.278,79.491 76.575,81.365 L77.216,85.380 C77.334,86.110 77.724,86.747 78.322,87.180 C78.916,87.611 79.639,87.790 80.385,87.671 C81.917,87.429 82.929,86.043 82.691,84.517 L82.054,80.503 C81.757,78.630 82.820,76.806 84.602,76.141 C88.206,74.796 91.465,72.806 94.286,70.225 C95.694,68.939 97.812,68.824 99.343,69.937 L102.638,72.324 C103.228,72.753 103.962,72.919 104.686,72.815 C105.420,72.698 106.060,72.307 106.494,71.708 C106.936,71.102 107.116,70.371 107.002,69.646 C106.885,68.925 106.491,68.288 105.893,67.851 L102.599,65.465 C101.059,64.350 100.520,62.307 101.308,60.579 C102.902,57.095 103.793,53.387 103.957,49.565 C104.039,47.667 105.450,46.090 107.330,45.793 L111.355,45.158 C112.083,45.042 112.719,44.651 113.153,44.056 C113.587,43.458 113.762,42.729 113.649,42.000 ZM85.579,56.545 C82.812,60.343 78.487,62.363 74.106,62.363 C71.217,62.363 68.310,61.488 65.801,59.671 C62.742,57.454 60.729,54.178 60.139,50.452 C59.549,46.727 60.447,42.992 62.671,39.940 C67.255,33.642 76.127,32.235 82.449,36.815 C88.765,41.392 90.167,50.241 85.583,56.543 L85.579,56.545 ZM77.744,43.274 C76.655,42.485 75.388,42.103 74.134,42.103 C72.227,42.103 70.347,42.980 69.144,44.633 C68.178,45.960 67.787,47.584 68.045,49.203 C68.299,50.824 69.175,52.246 70.507,53.211 C73.258,55.203 77.116,54.588 79.109,51.851 C81.102,49.111 80.487,45.263 77.744,43.274 ZM34.562,119.770 C37.555,118.095 40.721,116.786 44.019,115.858 L44.019,114.193 C44.019,107.596 49.404,102.229 56.024,102.229 C62.644,102.229 68.029,107.596 68.029,114.193 L68.029,115.858 C71.327,116.786 74.493,118.095 77.486,119.770 L78.671,118.588 C80.934,116.329 83.943,115.081 87.143,115.079 C87.143,115.079 87.147,115.079 87.151,115.079 C90.351,115.079 93.364,116.328 95.639,118.597 C100.321,123.266 100.325,130.860 95.647,135.524 L94.462,136.704 C96.143,139.694 97.455,142.849 98.386,146.140 L100.055,146.140 C106.666,146.140 112.048,151.512 112.048,158.116 C112.048,164.719 106.666,170.091 100.055,170.091 L98.386,170.091 C97.455,173.382 96.143,176.537 94.462,179.527 L95.647,180.707 C97.914,182.966 99.164,185.968 99.164,189.159 C99.167,192.351 97.914,195.363 95.639,197.634 C90.961,202.300 83.349,202.308 78.671,197.642 L77.486,196.462 C74.493,198.137 71.327,199.446 68.029,200.374 L68.029,202.039 C68.029,208.637 62.644,214.003 56.024,214.003 C49.404,214.003 44.019,208.637 44.019,202.039 L44.019,200.374 C40.721,199.446 37.555,198.137 34.562,196.462 L33.378,197.644 C31.111,199.905 28.101,201.151 24.905,201.153 C24.901,201.153 24.901,201.153 24.897,201.153 C21.697,201.153 18.684,199.904 16.409,197.635 C11.727,192.966 11.723,185.373 16.401,180.708 L17.582,179.528 C15.905,176.538 14.593,173.381 13.662,170.092 L11.994,170.092 C5.382,170.092 0.001,164.720 0.001,158.117 C0.001,151.513 5.382,146.141 11.994,146.141 L13.662,146.141 C14.593,142.852 15.905,139.695 17.582,136.705 L16.401,135.523 C14.134,133.266 12.884,130.264 12.884,127.073 C12.881,123.881 14.134,120.869 16.409,118.598 C21.087,113.930 28.700,113.926 33.378,118.590 L34.562,119.770 ZM27.719,124.238 C26.157,122.679 23.624,122.689 22.069,124.244 C21.307,125.006 20.884,126.010 20.888,127.070 C20.888,128.128 21.302,129.126 22.061,129.879 L25.464,133.282 C26.809,134.622 27.020,136.724 25.972,138.305 C23.413,142.166 21.647,146.412 20.732,150.925 C20.353,152.786 18.711,154.124 16.809,154.124 L11.995,154.124 C9.795,154.124 8.005,155.915 8.005,158.116 C8.005,160.316 9.795,162.108 11.995,162.108 L16.810,162.108 C18.712,162.108 20.354,163.445 20.733,165.306 C21.648,169.818 23.414,174.065 25.973,177.927 C27.021,179.507 26.810,181.608 25.465,182.949 L22.062,186.349 C20.507,187.901 20.511,190.432 22.070,191.987 C22.832,192.750 23.837,193.167 24.899,193.167 C24.899,193.167 24.899,193.167 24.903,193.167 C25.961,193.167 26.962,192.750 27.720,191.995 L31.128,188.596 C31.901,187.826 32.925,187.428 33.957,187.428 C34.722,187.428 35.492,187.647 36.165,188.093 C40.033,190.646 44.288,192.406 48.814,193.323 C50.682,193.699 52.022,195.336 52.022,197.235 L52.022,202.037 C52.022,204.232 53.816,206.017 56.024,206.017 C58.267,206.017 60.026,204.268 60.026,202.037 L60.026,197.235 C60.026,195.335 61.366,193.698 63.235,193.323 C67.760,192.406 72.016,190.646 75.884,188.093 C77.463,187.046 79.573,187.255 80.922,188.596 L84.329,191.993 C85.888,193.550 88.421,193.541 89.979,191.987 C90.742,191.225 91.164,190.221 91.160,189.161 C91.160,188.103 90.746,187.105 89.987,186.353 L86.580,182.951 C85.235,181.609 85.020,179.507 86.072,177.925 C88.635,174.065 90.402,169.821 91.316,165.306 C91.695,163.445 93.337,162.108 95.240,162.108 L100.055,162.108 C102.254,162.108 104.041,160.316 104.041,158.116 C104.041,155.915 102.251,154.124 100.052,154.124 L95.238,154.124 C93.335,154.124 91.693,152.786 91.314,150.925 C90.400,146.411 88.633,142.166 86.070,138.307 C85.019,136.724 85.233,134.623 86.578,133.280 L89.985,129.881 C91.540,128.330 91.536,125.799 89.977,124.244 C89.215,123.482 88.211,123.064 87.148,123.064 C87.144,123.064 87.144,123.064 87.144,123.064 C86.086,123.064 85.085,123.480 84.331,124.234 L80.920,127.635 C79.572,128.978 77.461,129.189 75.882,128.138 C72.014,125.585 67.759,123.825 63.233,122.909 C61.365,122.532 60.025,120.895 60.025,118.997 L60.025,114.194 C60.025,112.000 58.231,110.214 56.023,110.214 C53.780,110.214 52.021,111.963 52.021,114.194 L52.021,118.997 C52.021,120.895 50.681,122.532 48.813,122.909 C44.288,123.825 40.032,125.585 36.164,128.138 C34.585,129.189 32.475,128.978 31.127,127.635 L27.719,124.238 ZM56.024,142.148 C64.853,142.148 72.031,149.311 72.031,158.116 C72.031,166.920 64.852,174.083 56.024,174.083 C47.196,174.083 40.017,166.920 40.017,158.116 C40.017,149.311 47.196,142.148 56.024,142.148 ZM56.024,166.099 C60.436,166.099 64.027,162.519 64.027,158.116 C64.027,153.712 60.436,150.132 56.024,150.132 C51.612,150.132 48.021,153.712 48.021,158.116 C48.021,162.519 51.612,166.099 56.024,166.099 Z"/>
</svg>
