<svg xmlns="http://www.w3.org/2000/svg" width="799" height="800" viewBox="0 0 799 800">
  <defs>
    <style>
      .cls-1 {
        fill-rule: evenodd;
      }
    </style>
  </defs>
  <path fill="#ffffff" class="cls-1"  d="M801,493.333h0v-480C801,5.333,795.667,0,787.667,0H14.334C6.333,0,1,5.333,1,13.334V640c0,8,5.334,13.333,13.334,13.333H147.666V626.667h-120v-600H774.333V480H641c-8,0-13.333,5.333-13.333,13.333V626.667H334.333v26.666H641a12.1,12.1,0,0,0,9.333-4L797,502.667c1.333-1.334,1.333-2.667,2.667-4v-1.334A4.9,4.9,0,0,0,801,493.333ZM654.333,506.667H755.667L705,557.333,654.333,608V506.667ZM253,129.333a12.381,12.381,0,0,0-24,0l-38.667,116c-1.333,2.667-2.667,5.333-2.667,8V786.667c0,8,5.334,13.333,13.334,13.333h80c8,0,13.333-5.333,13.333-13.333V253.333c0-2.667-1.333-6.667-2.667-8ZM214.333,266.666h13.333V680H214.333V266.666Zm40,0h13.333V680H254.333V266.666ZM241,176l21.333,64H219.666Zm26.666,597.333H214.333V706.667h53.333v66.666ZM467.667,80a119.5,119.5,0,0,0-120,120v26.666h26.666V200A93.334,93.334,0,1,1,561,200v26.666h26.667V200A119.5,119.5,0,0,0,467.667,80ZM721,213.333V186.666H694.333v26.667a93.333,93.333,0,1,1-186.666,0V186.666H481v26.667A120,120,0,0,0,721,213.333ZM334.333,440V573.333c0,8,5.334,13.334,13.334,13.334H481c8,0,13.333-5.334,13.333-13.334V440c0-8-5.333-13.333-13.333-13.333H347.667C339.667,426.667,334.333,432,334.333,440ZM361,453.333H467.667V560H361V453.333Zm160,13.334v26.666h26.667c8,0,13.333-5.333,13.333-13.333V373.333c0-8-5.333-13.333-13.333-13.333H441c-8,0-13.333,5.333-13.333,13.333V400h26.666V386.666h80v80H521Zm-440-400h26.666V93.334H81V66.667Zm53.333,0H161V93.334H134.333V66.667Zm53.333,0h26.667V93.334H187.666V66.667ZM134.333,120H161v26.666H134.333V120ZM81,120h26.666v26.666H81V120Zm0,53.333h26.666V200H81V173.333Zm0,53.333h26.666v26.667H81V226.666ZM81,280h26.666v26.666H81V280Zm0,53.333h26.666V360H81V333.333Zm0,53.333h26.666v26.668H81V386.666ZM81,440h26.666v26.667H81V440Zm0,53.333h26.666V520H81V493.333Zm0,53.334h26.666v26.666H81V546.667Z" transform="translate(-1)"/>
</svg>
