<svg
 xmlns="http://www.w3.org/2000/svg"
 xmlns:xlink="http://www.w3.org/1999/xlink"
 width="24px" height="22px">
<path fill-rule="evenodd"  fill="rgb(255, 255, 255)"
 d="M12.087,10.983 L22.901,21.278 C23.075,21.443 23.075,21.710 22.901,21.875 C22.728,22.040 22.447,22.040 22.273,21.875 L11.145,11.282 C11.062,11.202 11.015,11.095 11.015,10.983 C11.015,10.871 11.062,10.763 11.145,10.684 L22.273,0.090 C22.447,-0.075 22.728,-0.075 22.901,0.090 C23.075,0.255 23.075,0.523 22.901,0.688 L12.087,10.983 ZM1.072,10.983 L11.886,21.278 C12.060,21.443 12.060,21.710 11.886,21.875 C11.713,22.040 11.432,22.040 11.258,21.875 L0.130,11.282 C0.047,11.202 -0.000,11.095 -0.000,10.983 C-0.000,10.871 0.047,10.763 0.130,10.684 L11.258,0.090 C11.432,-0.075 11.713,-0.075 11.886,0.090 C12.060,0.255 12.060,0.523 11.886,0.688 L1.072,10.983 Z"/>
</svg>
