<svg
 xmlns="http://www.w3.org/2000/svg"
 xmlns:xlink="http://www.w3.org/1999/xlink"
 width="23px" height="23px">
<path fill-rule="evenodd"  fill="rgb(255, 255, 255)"
 d="M22.870,11.316 L11.757,21.910 C11.584,22.075 11.303,22.075 11.130,21.910 C10.956,21.745 10.956,21.477 11.130,21.312 L21.929,11.017 L11.130,0.722 C10.956,0.557 10.956,0.290 11.130,0.125 C11.303,-0.040 11.584,-0.040 11.757,0.125 L22.870,10.718 C22.953,10.798 23.000,10.905 23.000,11.017 C23.000,11.129 22.953,11.237 22.870,11.316 ZM12.000,11.017 C12.000,11.129 11.953,11.237 11.870,11.316 L0.757,21.910 C0.584,22.075 0.303,22.075 0.130,21.910 C-0.044,21.745 -0.044,21.477 0.130,21.312 L10.929,11.017 L0.130,0.722 C-0.044,0.557 -0.044,0.290 0.130,0.125 C0.303,-0.040 0.584,-0.040 0.757,0.125 L11.870,10.718 C11.953,10.798 12.000,10.905 12.000,11.017 Z"/>
</svg>
