<svg
 xmlns="http://www.w3.org/2000/svg"
 xmlns:xlink="http://www.w3.org/1999/xlink"
 width="26px" height="29px">
<path fill-rule="evenodd"  fill="rgb(255, 255, 255)"
 d="M19.191,29.000 L16.290,29.000 C14.802,29.000 13.401,28.410 12.349,27.338 L3.533,18.357 C2.809,17.620 2.809,16.420 3.533,15.683 C4.663,14.532 6.478,14.403 7.753,15.377 L9.905,17.021 L9.905,6.302 C9.905,4.912 11.016,3.780 12.381,3.780 C13.747,3.780 14.857,4.912 14.857,6.302 L14.857,10.425 C15.221,10.209 15.645,10.085 16.095,10.085 C17.174,10.085 18.094,10.792 18.433,11.772 C18.827,11.504 19.301,11.346 19.810,11.346 C20.888,11.346 21.808,12.053 22.147,13.033 C22.541,12.765 23.015,12.608 23.524,12.608 C24.889,12.608 26.000,13.738 26.000,15.129 L26.000,22.064 C26.000,25.889 22.944,29.000 19.191,29.000 ZM24.762,15.129 C24.762,14.435 24.207,13.868 23.524,13.868 C22.840,13.868 22.286,14.435 22.286,15.129 L22.286,15.759 C22.286,16.108 22.008,16.390 21.667,16.390 C21.325,16.390 21.048,16.108 21.048,15.759 L21.048,13.868 C21.048,13.174 20.493,12.608 19.810,12.608 C19.126,12.608 18.572,13.174 18.572,13.868 L18.572,15.759 C18.572,16.108 18.294,16.390 17.953,16.390 C17.611,16.390 17.334,16.108 17.334,15.759 L17.334,12.608 C17.334,11.912 16.779,11.346 16.096,11.346 C15.412,11.346 14.857,11.912 14.857,12.608 L14.857,15.759 C14.857,16.108 14.580,16.390 14.238,16.390 C13.897,16.390 13.619,16.108 13.619,15.759 L13.619,6.302 C13.619,5.608 13.065,5.041 12.381,5.041 C11.698,5.041 11.143,5.608 11.143,6.302 L11.143,18.281 C11.143,18.520 11.011,18.738 10.802,18.845 C10.594,18.951 10.341,18.930 10.153,18.786 L7.012,16.387 C6.659,16.117 6.238,15.984 5.820,15.984 C5.305,15.984 4.792,16.185 4.408,16.574 C4.167,16.820 4.167,17.220 4.408,17.466 L13.225,26.446 C14.043,27.280 15.131,27.739 16.290,27.739 L19.191,27.739 C22.262,27.739 24.762,25.193 24.762,22.064 L24.762,15.129 ZM24.628,3.524 C24.611,3.547 24.602,3.575 24.581,3.596 L22.105,6.118 C21.984,6.241 21.825,6.302 21.667,6.302 C21.508,6.302 21.350,6.241 21.228,6.118 C20.987,5.872 20.987,5.473 21.228,5.227 L22.649,3.780 L16.715,3.780 C16.373,3.780 16.095,3.498 16.095,3.150 C16.095,2.802 16.373,2.520 16.715,2.520 L22.649,2.520 L21.230,1.074 C20.988,0.829 20.988,0.429 21.230,0.183 C21.471,-0.063 21.864,-0.063 22.105,0.183 L24.581,2.705 C24.594,2.718 24.598,2.735 24.610,2.749 C24.651,2.798 24.689,2.848 24.714,2.908 C24.777,3.063 24.777,3.238 24.714,3.392 C24.694,3.442 24.660,3.482 24.628,3.524 ZM8.048,3.780 L2.114,3.780 L3.533,5.226 C3.774,5.471 3.774,5.871 3.533,6.117 C3.413,6.241 3.254,6.302 3.096,6.302 C2.937,6.302 2.779,6.241 2.658,6.118 L0.182,3.596 C0.162,3.576 0.154,3.551 0.138,3.529 C0.105,3.486 0.070,3.444 0.049,3.392 C-0.014,3.238 -0.014,3.063 0.049,2.909 C0.074,2.846 0.114,2.793 0.157,2.743 C0.167,2.731 0.170,2.716 0.182,2.705 L2.658,0.183 C2.899,-0.063 3.292,-0.063 3.533,0.183 C3.774,0.429 3.774,0.829 3.533,1.074 L2.114,2.520 L8.048,2.520 C8.390,2.520 8.667,2.802 8.667,3.150 C8.667,3.498 8.390,3.780 8.048,3.780 Z"/>
</svg>
