<?xml version="1.0" encoding="UTF-8" ?>
<svg width="120px" height="120px" viewBox="0 0 136 136" version="1.1" xmlns="http://www.w3.org/2000/svg">
<g id="#0d1224fc">
<path fill="#00549d" opacity="1.00" d=" M 63.26 0.00 L 73.71 0.00 C 98.28 1.96 120.99 18.32 130.32 41.16 C 107.52 41.34 84.71 41.10 61.91 41.28 C 59.07 41.08 57.86 44.52 59.58 46.55 C 67.94 61.15 76.44 75.69 84.80 90.30 C 85.58 91.45 86.25 93.28 87.98 93.12 C 93.32 93.34 98.69 93.36 104.03 93.11 C 105.73 93.24 106.37 91.41 107.16 90.28 C 111.24 83.02 115.52 75.89 119.58 68.63 C 120.85 67.07 120.32 64.01 118.03 63.83 C 113.06 63.60 108.03 63.46 103.07 63.93 C 99.89 66.66 98.88 71.21 96.01 74.31 C 92.72 69.45 88.88 64.39 87.53 58.67 C 101.04 58.53 114.56 58.72 128.07 58.59 C 131.33 58.65 132.13 54.77 133.82 52.68 C 138.11 70.45 134.31 89.93 124.02 105.01 C 115.93 117.08 103.78 126.37 90.02 131.05 C 73.71 136.65 55.25 135.74 39.65 128.36 C 24.61 121.39 12.29 108.64 6.02 93.29 C 28.68 93.15 51.34 93.34 74.00 93.20 C 76.45 93.76 78.69 90.87 77.13 88.78 C 68.78 73.90 60.06 59.23 51.63 44.40 C 50.79 43.10 49.97 41.23 48.13 41.32 C 43.06 41.10 37.98 41.19 32.91 41.27 C 30.78 41.14 29.78 43.28 28.86 44.82 C 24.81 52.05 20.53 59.15 16.49 66.38 C 15.20 68.15 16.55 69.83 17.87 71.01 C 22.96 70.99 28.05 70.95 33.14 71.03 C 36.56 68.27 36.87 62.45 40.94 60.80 C 43.90 65.38 46.66 70.13 49.13 75.00 C 48.16 76.35 46.42 75.95 45.00 76.03 C 32.98 75.96 20.97 76.03 8.95 75.99 C 5.23 75.34 4.26 79.69 2.38 81.96 C -2.30 61.23 3.42 38.46 17.67 22.63 C 29.15 9.51 45.89 1.31 63.26 0.00 Z" />
</g>
</svg>
